<?xml version="1.0" standalone="no"?>
<!DOCTYPE svg PUBLIC "-//W3C//DTD SVG 20010904//EN"
 "http://www.w3.org/TR/2001/REC-SVG-20010904/DTD/svg10.dtd">
<svg version="1.0" xmlns="http://www.w3.org/2000/svg"
 width="20.000000pt" height="20.000000pt" viewBox="0 0 20.000000 20.000000"
 preserveAspectRatio="xMidYMid meet">

<g transform="translate(0.000000,20.000000) scale(0.100000,-0.100000)"
fill="#000000" stroke="none">
<path d="M20 100 l0 -100 80 0 80 0 0 69 c0 64 -2 72 -31 100 -26 26 -38 31
-80 31 l-49 0 0 -100z m90 60 c0 -27 3 -30 30 -30 l30 0 0 -60 0 -60 -70 0
-70 0 0 90 0 90 40 0 c38 0 40 -2 40 -30z m35 0 c18 -19 17 -20 -3 -20 -15 0
-22 6 -22 20 0 11 2 20 3 20 2 0 12 -9 22 -20z"/>
<path d="M83 103 c15 -2 37 -2 50 0 12 2 0 4 -28 4 -27 0 -38 -2 -22 -4z"/>
<path d="M78 73 c12 -2 32 -2 45 0 12 2 2 4 -23 4 -25 0 -35 -2 -22 -4z"/>
<path d="M78 33 c12 -2 32 -2 45 0 12 2 2 4 -23 4 -25 0 -35 -2 -22 -4z"/>
</g>
</svg>
