<svg width="700" height="700" viewBox="0 0 700 700" fill="none" xmlns="http://www.w3.org/2000/svg">
<g clip-path="url(#clip0)">
<rect x="162" y="162" width="376" height="376" rx="70" fill="#97D700"/>
<path d="M338.578 310.363C338.578 312.178 338.15 313.894 337.389 315.416L371.652 349.321L442.724 323.206C442.71 322.979 442.703 322.749 442.703 322.518C442.703 316.243 447.817 311.155 454.125 311.155C460.433 311.155 465.547 316.243 465.547 322.518C465.547 328.794 460.433 333.881 454.125 333.881C450.121 333.881 446.598 331.831 444.559 328.729L388.109 349.472H463.533C464.824 344.604 469.28 341.016 474.578 341.016C480.886 341.016 486 346.103 486 352.378C486 358.654 480.886 363.741 474.578 363.741C469.28 363.741 464.824 360.152 463.533 355.285H377.679L390.531 368.003C392.014 367.303 393.672 366.912 395.422 366.912C401.73 366.912 406.844 371.999 406.844 378.275C406.844 384.55 401.73 389.637 395.422 389.637C389.114 389.637 384 384.55 384 378.275C384 375.856 384.759 373.615 386.054 371.772L370.176 356.061L279.342 389.437C279.343 389.504 279.344 389.57 279.344 389.637C279.344 395.913 274.23 401 267.922 401C261.614 401 256.5 395.913 256.5 389.637C256.5 383.362 261.614 378.275 267.922 378.275C272.096 378.275 275.748 380.503 277.74 383.828L355.421 355.285H236.467C235.176 360.152 230.72 363.741 225.422 363.741C219.114 363.741 214 358.654 214 352.378C214 346.103 219.114 341.016 225.422 341.016C230.72 341.016 235.176 344.604 236.467 349.472H363.518L333.528 319.795C331.708 321.014 329.515 321.725 327.156 321.725C320.848 321.725 315.734 316.638 315.734 310.363C315.734 304.087 320.848 299 327.156 299C333.464 299 338.578 304.087 338.578 310.363Z" fill="#2D2926"/>
</g>
<defs>
<clipPath id="clip0">
<rect width="700" height="700" fill="white"/>
</clipPath>
</defs>
</svg>
