<svg height="561pt" viewBox="-24 -17 561 561.33361" width="561pt" xmlns="http://www.w3.org/2000/svg"><path d="m9.644531 47.34375c-5.507812 0-9.976562 4.464844-9.976562 9.976562v458.929688c.078125 5.546875 4.601562 10.003906 10.148437 10h483.871094c5.511719 0 9.976562-4.464844 9.976562-9.976562 0-5.507813-4.464843-9.976563-9.976562-9.976563h-474.066406v-448.976563c0-5.511718-4.464844-9.976562-9.976563-9.976562zm0 0"/><path d="m471.84375 1.960938c-4.425781-3.28125-10.675781-2.347657-13.957031 2.078124l-84.542969 114.1875-71.082031-52.113281c-2.183594-1.605469-4.925781-2.246093-7.597657-1.789062-2.667968.460937-5.035156 1.988281-6.554687 4.226562l-86.105469 126.882813-64.480468-54.558594c-2.226563-1.882812-5.164063-2.699219-8.039063-2.230469-2.878906.464844-5.40625 2.167969-6.925781 4.65625l-72.902344 119.71875c-1.886719 3.046875-1.992188 6.871094-.285156 10.015625 1.710937 3.144532 4.980468 5.136719 8.554687 5.210938 3.582031.078125 6.929688-1.773438 8.769531-4.84375l66.847657-109.757813 64.050781 54.195313c2.15625 1.832031 4.992188 2.652344 7.796875 2.269531 2.800781-.386719 5.308594-1.941406 6.898437-4.28125l86.527344-127.503906 70.742188 51.882812c4.433594 3.242188 10.65625 2.304688 13.917968-2.113281l90.453126-122.167969c1.578124-2.128906 2.246093-4.792969 1.855468-7.414062-.394531-2.621094-1.8125-4.980469-3.941406-6.550781zm0 0"/><path d="m470.359375 103.808594-84.542969 114.1875-71.085937-52.117188c-2.183594-1.601562-4.925781-2.246094-7.59375-1.789062-2.667969.464844-5.039063 1.988281-6.558594 4.230468l-86.101563 126.882813-64.484374-54.5625c-2.226563-1.878906-5.164063-2.699219-8.039063-2.230469-2.878906.46875-5.40625 2.167969-6.925781 4.65625l-72.902344 119.722656c-1.882812 3.042969-1.992188 6.867188-.28125 10.015626 1.710938 3.140624 4.980469 5.132812 8.554688 5.207031 3.582031.078125 6.925781-1.773438 8.769531-4.84375l66.84375-109.757813 64.050781 54.195313c2.160156 1.832031 4.992188 2.65625 7.800781 2.269531 2.800781-.382812 5.308594-1.9375 6.898438-4.28125l86.523437-127.5 70.746094 51.878906c4.433594 3.246094 10.652344 2.304688 13.917969-2.113281l90.453125-122.164063c2.152344-2.867187 2.609375-6.660156 1.1875-9.953124-1.417969-3.289063-4.492188-5.5625-8.050782-5.964844-3.5625-.394532-7.066406 1.152344-9.175781 4.042968zm0 0"/><path d="m509.257812 201.496094c-4.429687-3.28125-10.679687-2.347656-13.957031 2.078125l-84.542969 114.1875-71.085937-52.113281c-2.179687-1.605469-4.925781-2.246094-7.59375-1.789063-2.667969.460937-5.035156 1.988281-6.558594 4.226563l-86.101562 126.882812-64.484375-54.558594c-2.226563-1.882812-5.164063-2.699218-8.035156-2.230468-2.878907.464843-5.410157 2.167968-6.929688 4.65625l-72.902344 119.71875c-1.882812 3.046874-1.992187 6.871093-.28125 10.015624 1.710938 3.144532 4.980469 5.136719 8.554688 5.210938 3.582031.074219 6.925781-1.773438 8.769531-4.84375l66.84375-109.757812 64.050781 54.195312c2.160156 1.828125 4.992188 2.652344 7.800782 2.269531 2.800781-.386719 5.308593-1.941406 6.898437-4.28125l86.527344-127.503906 70.738281 51.867187c4.425781 3.25 10.648438 2.304688 13.917969-2.109374l90.453125-122.164063c3.277344-4.429687 2.347656-10.679687-2.082032-13.957031zm0 0"/></svg>