<?xml version="1.0" standalone="no"?>
<!DOCTYPE svg PUBLIC "-//W3C//DTD SVG 20010904//EN"
 "http://www.w3.org/TR/2001/REC-SVG-20010904/DTD/svg10.dtd">
<svg version="1.0" xmlns="http://www.w3.org/2000/svg"
 width="19.000000pt" height="24.000000pt" viewBox="0 0 19.000000 24.000000"
 preserveAspectRatio="xMidYMid meet">

<g transform="translate(0.000000,24.000000) scale(0.100000,-0.100000)"
fill="#000000" stroke="none">
<path d="M0 120 l0 -120 95 0 95 0 0 120 0 120 -95 0 -95 0 0 -120z m180 0 l0
-110 -85 0 -85 0 0 110 0 110 85 0 85 0 0 -110z"/>
<path d="M40 190 c0 -18 7 -20 55 -20 48 0 55 2 55 20 0 18 -7 20 -55 20 -48
0 -55 -2 -55 -20z m100 0 c0 -5 -20 -10 -45 -10 -25 0 -45 5 -45 10 0 6 20 10
45 10 25 0 45 -4 45 -10z"/>
</g>
</svg>
