<?xml version="1.0" standalone="no"?>
<!DOCTYPE svg PUBLIC "-//W3C//DTD SVG 20010904//EN"
 "http://www.w3.org/TR/2001/REC-SVG-20010904/DTD/svg10.dtd">
<svg version="1.0" xmlns="http://www.w3.org/2000/svg"
 width="24.000000pt" height="24.000000pt" viewBox="0 0 24.000000 24.000000"
 preserveAspectRatio="xMidYMid meet">

<g transform="translate(0.000000,24.000000) scale(0.100000,-0.100000)"
fill="#000000" stroke="none">
<path d="M22 123 l-2 -103 99 0 99 0 -7 27 c-10 38 -41 44 -41 9 0 -16 -6 -26
-15 -26 -12 0 -15 16 -15 85 0 69 -3 85 -15 85 -12 0 -15 -16 -15 -85 0 -69
-3 -85 -15 -85 -11 0 -15 12 -15 50 0 38 -4 50 -15 50 -11 0 -15 -12 -15 -50
0 -92 -19 -51 -23 48 l-3 97 -2 -102z m105 -55 c-2 -24 -4 -5 -4 42 0 47 2 66
4 43 2 -24 2 -62 0 -85z m-60 -15 c-2 -16 -4 -5 -4 22 0 28 2 40 4 28 2 -13 2
-35 0 -50z m133 -3 c0 -11 -4 -20 -10 -20 -5 0 -10 9 -10 20 0 11 5 20 10 20
6 0 10 -9 10 -20z"/>
</g>
</svg>
