<svg width="1920" height="1080" viewBox="0 0 1920 1080" fill="none" xmlns="http://www.w3.org/2000/svg">
<path d="M916 240C916 246.87 914.389 253.363 911.524 259.123L1040.51 387.431L1308.08 288.604C1308.03 287.743 1308 286.874 1308 286C1308 262.252 1327.25 243 1351 243C1374.75 243 1394 262.252 1394 286C1394 309.748 1374.75 329 1351 329C1335.93 329 1322.66 321.244 1314.99 309.505L1102.47 388H1386.42C1391.28 369.581 1408.05 356 1428 356C1451.75 356 1471 375.252 1471 399C1471 422.748 1451.75 442 1428 442C1408.05 442 1391.28 428.419 1386.42 410H1063.2L1111.59 458.13C1117.17 455.482 1123.41 454 1130 454C1153.75 454 1173 473.252 1173 497C1173 520.748 1153.75 540 1130 540C1106.25 540 1087 520.748 1087 497C1087 487.849 1089.86 479.365 1094.73 472.393L1034.96 412.936L692.993 539.243C692.998 539.495 693 539.747 693 540C693 563.748 673.748 583 650 583C626.252 583 607 563.748 607 540C607 516.252 626.252 497 650 497C665.716 497 679.463 505.431 686.964 518.017L979.41 410H531.58C526.72 428.419 509.946 442 490 442C466.252 442 447 422.748 447 399C447 375.252 466.252 356 490 356C509.946 356 526.72 369.581 531.58 388H1009.89L896.987 275.693C890.135 280.307 881.882 283 873 283C849.252 283 830 263.748 830 240C830 216.252 849.252 197 873 197C896.748 197 916 216.252 916 240Z" fill="#2D2926"/>
<path fill-rule="evenodd" clip-rule="evenodd" d="M432 735.908V886H477.467V823.483H634.189V886H680V735.908C680 726.092 675.293 717.653 665.878 710.592C656.463 703.531 645.096 700 631.778 700H479.878C466.789 700 455.537 703.531 446.122 710.592C436.707 717.653 432 726.092 432 735.908ZM634.189 789.383H477.467V743.4C477.467 738.578 477.811 735.908 478.5 735.392C479.419 734.703 483.093 734.358 489.522 734.358H622.133C628.333 734.358 631.893 734.703 632.811 735.392C633.73 735.908 634.189 738.578 634.189 743.4V789.383Z" fill="#2D2926"/>
<path d="M798.567 734.358V886H837.728V734.358H941V700H698V734.358H798.567Z" fill="#2D2926"/>
<path d="M1010.72 891C997.947 891 986.968 887.375 977.781 880.124C968.594 872.873 964 864.207 964 854.126V700H1008.37V846.433C1008.37 851.385 1008.7 854.215 1009.38 854.922C1010.27 855.453 1013.86 855.718 1020.13 855.718H1149.53C1155.58 855.718 1159.06 855.453 1159.95 854.922C1160.85 854.215 1161.3 851.385 1161.3 846.433V700H1206V854.126C1206 864.207 1201.41 872.873 1192.22 880.124C1183.03 887.375 1172.05 891 1159.28 891H1010.72Z" fill="#2D2926"/>
<path d="M1253.78 880.124C1262.97 887.375 1273.95 891 1286.72 891H1435.28C1448.05 891 1459.03 887.375 1468.22 880.124C1477.41 872.873 1482 864.207 1482 854.126V814.865C1482 804.785 1477.41 796.119 1468.22 788.868C1459.03 781.44 1448.05 777.726 1435.28 777.726H1296.13C1289.86 777.726 1286.27 777.461 1285.38 776.931C1284.7 776.4 1284.37 773.659 1284.37 768.707V744.567C1284.37 739.615 1284.7 736.874 1285.38 736.343C1286.27 735.636 1289.86 735.282 1296.13 735.282H1425.53C1431.81 735.282 1435.28 735.636 1435.95 736.343C1436.85 736.874 1437.3 739.615 1437.3 744.567V751.464H1482V736.874C1482 726.793 1477.41 718.127 1468.22 710.876C1459.03 703.625 1448.05 700 1435.28 700H1286.72C1273.95 700 1262.97 703.625 1253.78 710.876C1244.59 718.127 1240 726.793 1240 736.874V776.135C1240 786.215 1244.59 794.881 1253.78 802.132C1262.97 809.383 1273.95 813.008 1286.72 813.008H1425.53C1431.81 813.008 1435.28 813.362 1435.95 814.069C1436.85 814.6 1437.3 817.341 1437.3 822.293V846.433C1437.3 851.385 1436.85 854.215 1435.95 854.922C1435.28 855.453 1431.81 855.718 1425.53 855.718H1296.13C1289.86 855.718 1286.27 855.453 1285.38 854.922C1284.7 854.215 1284.37 851.385 1284.37 846.433V839.536H1240V854.126C1240 864.207 1244.59 872.873 1253.78 880.124Z" fill="#2D2926"/>
<path d="M476.44 980L488.824 946.4H493.096L505.432 980H501.16L498.088 971.36H483.784L480.664 980H476.44ZM484.984 968.096H496.888L490.936 951.488L484.984 968.096ZM514.267 980V956.192H517.915L518.155 960.464C518.923 958.96 520.027 957.776 521.467 956.912C522.907 956.048 524.539 955.616 526.363 955.616C529.179 955.616 531.419 956.48 533.083 958.208C534.779 959.904 535.627 962.528 535.627 966.08V980H531.595V966.512C531.595 961.552 529.547 959.072 525.451 959.072C523.403 959.072 521.691 959.824 520.315 961.328C518.971 962.8 518.299 964.912 518.299 967.664V980H514.267ZM553.736 980.576C551.752 980.576 550.104 980.24 548.792 979.568C547.48 978.896 546.504 978 545.864 976.88C545.224 975.76 544.904 974.544 544.904 973.232C544.904 970.8 545.832 968.928 547.688 967.616C549.544 966.304 552.072 965.648 555.272 965.648H561.704V965.36C561.704 963.28 561.16 961.712 560.072 960.656C558.984 959.568 557.528 959.024 555.704 959.024C554.136 959.024 552.776 959.424 551.624 960.224C550.504 960.992 549.8 962.128 549.512 963.632H545.384C545.544 961.904 546.12 960.448 547.112 959.264C548.136 958.08 549.4 957.184 550.904 956.576C552.408 955.936 554.008 955.616 555.704 955.616C559.032 955.616 561.528 956.512 563.192 958.304C564.888 960.064 565.736 962.416 565.736 965.36V980H562.136L561.896 975.728C561.224 977.072 560.232 978.224 558.92 979.184C557.64 980.112 555.912 980.576 553.736 980.576ZM554.36 977.168C555.896 977.168 557.208 976.768 558.296 975.968C559.416 975.168 560.264 974.128 560.84 972.848C561.416 971.568 561.704 970.224 561.704 968.816V968.768H555.608C553.24 968.768 551.56 969.184 550.568 970.016C549.608 970.816 549.128 971.824 549.128 973.04C549.128 974.288 549.576 975.296 550.472 976.064C551.4 976.8 552.696 977.168 554.36 977.168ZM575.864 980V945.44H579.896V980H575.864ZM593.177 990.56L599.081 977.696H597.689L588.233 956.192H592.601L600.473 974.72L608.825 956.192H613.001L597.401 990.56H593.177ZM629.051 980.576C626.203 980.576 623.835 979.856 621.947 978.416C620.059 976.976 618.955 975.024 618.635 972.56H622.763C623.019 973.808 623.675 974.896 624.731 975.824C625.819 976.72 627.275 977.168 629.099 977.168C630.795 977.168 632.043 976.816 632.843 976.112C633.643 975.376 634.043 974.512 634.043 973.52C634.043 972.08 633.515 971.12 632.459 970.64C631.435 970.16 629.979 969.728 628.091 969.344C626.811 969.088 625.531 968.72 624.251 968.24C622.971 967.76 621.899 967.088 621.035 966.224C620.171 965.328 619.739 964.16 619.739 962.72C619.739 960.64 620.507 958.944 622.043 957.632C623.611 956.288 625.723 955.616 628.379 955.616C630.907 955.616 632.971 956.256 634.571 957.536C636.203 958.784 637.147 960.576 637.403 962.912H633.419C633.259 961.696 632.731 960.752 631.835 960.08C630.971 959.376 629.803 959.024 628.331 959.024C626.891 959.024 625.771 959.328 624.971 959.936C624.203 960.544 623.819 961.344 623.819 962.336C623.819 963.296 624.315 964.048 625.307 964.592C626.331 965.136 627.707 965.6 629.435 965.984C630.907 966.304 632.299 966.704 633.611 967.184C634.955 967.632 636.043 968.32 636.875 969.248C637.739 970.144 638.171 971.456 638.171 973.184C638.203 975.328 637.387 977.104 635.723 978.512C634.091 979.888 631.867 980.576 629.051 980.576ZM650.459 950.912C649.659 950.912 648.987 950.656 648.443 950.144C647.931 949.6 647.675 948.928 647.675 948.128C647.675 947.36 647.931 946.72 648.443 946.208C648.987 945.696 649.659 945.44 650.459 945.44C651.227 945.44 651.883 945.696 652.427 946.208C652.971 946.72 653.243 947.36 653.243 948.128C653.243 948.928 652.971 949.6 652.427 950.144C651.883 950.656 651.227 950.912 650.459 950.912ZM648.443 980V956.192H652.475V980H648.443ZM672.695 980.576C669.847 980.576 667.479 979.856 665.591 978.416C663.703 976.976 662.599 975.024 662.279 972.56H666.407C666.663 973.808 667.319 974.896 668.375 975.824C669.463 976.72 670.919 977.168 672.743 977.168C674.439 977.168 675.687 976.816 676.487 976.112C677.287 975.376 677.687 974.512 677.687 973.52C677.687 972.08 677.159 971.12 676.103 970.64C675.079 970.16 673.623 969.728 671.735 969.344C670.455 969.088 669.175 968.72 667.895 968.24C666.615 967.76 665.543 967.088 664.679 966.224C663.815 965.328 663.383 964.16 663.383 962.72C663.383 960.64 664.151 958.944 665.687 957.632C667.255 956.288 669.367 955.616 672.023 955.616C674.551 955.616 676.615 956.256 678.215 957.536C679.847 958.784 680.791 960.576 681.047 962.912H677.063C676.903 961.696 676.375 960.752 675.479 960.08C674.615 959.376 673.447 959.024 671.975 959.024C670.535 959.024 669.415 959.328 668.615 959.936C667.847 960.544 667.463 961.344 667.463 962.336C667.463 963.296 667.959 964.048 668.951 964.592C669.975 965.136 671.351 965.6 673.079 965.984C674.551 966.304 675.943 966.704 677.255 967.184C678.599 967.632 679.687 968.32 680.519 969.248C681.383 970.144 681.815 971.456 681.815 973.184C681.847 975.328 681.031 977.104 679.367 978.512C677.735 979.888 675.511 980.576 672.695 980.576ZM716.55 980V949.712H706.518V946.4H730.614V949.712H720.582V980H716.55ZM745.913 980.576C743.673 980.576 741.657 980.064 739.865 979.04C738.073 978.016 736.649 976.576 735.593 974.72C734.569 972.832 734.057 970.624 734.057 968.096C734.057 965.568 734.585 963.376 735.641 961.52C736.697 959.632 738.121 958.176 739.913 957.152C741.737 956.128 743.769 955.616 746.009 955.616C748.249 955.616 750.265 956.128 752.057 957.152C753.849 958.176 755.257 959.632 756.281 961.52C757.337 963.376 757.865 965.568 757.865 968.096C757.865 970.624 757.337 972.832 756.281 974.72C755.225 976.576 753.785 978.016 751.961 979.04C750.169 980.064 748.153 980.576 745.913 980.576ZM745.913 977.12C747.289 977.12 748.569 976.784 749.753 976.112C750.937 975.44 751.897 974.432 752.633 973.088C753.369 971.744 753.737 970.08 753.737 968.096C753.737 966.112 753.369 964.448 752.633 963.104C751.929 961.76 750.985 960.752 749.801 960.08C748.617 959.408 747.353 959.072 746.009 959.072C744.633 959.072 743.353 959.408 742.169 960.08C740.985 960.752 740.025 961.76 739.289 963.104C738.553 964.448 738.185 966.112 738.185 968.096C738.185 970.08 738.553 971.744 739.289 973.088C740.025 974.432 740.969 975.44 742.121 976.112C743.305 976.784 744.569 977.12 745.913 977.12ZM778.399 980.576C776.159 980.576 774.143 980.064 772.351 979.04C770.559 978.016 769.135 976.576 768.079 974.72C767.055 972.832 766.543 970.624 766.543 968.096C766.543 965.568 767.071 963.376 768.127 961.52C769.183 959.632 770.607 958.176 772.399 957.152C774.223 956.128 776.255 955.616 778.495 955.616C780.735 955.616 782.751 956.128 784.543 957.152C786.335 958.176 787.743 959.632 788.767 961.52C789.823 963.376 790.351 965.568 790.351 968.096C790.351 970.624 789.823 972.832 788.767 974.72C787.711 976.576 786.271 978.016 784.447 979.04C782.655 980.064 780.639 980.576 778.399 980.576ZM778.399 977.12C779.775 977.12 781.055 976.784 782.239 976.112C783.423 975.44 784.383 974.432 785.119 973.088C785.855 971.744 786.223 970.08 786.223 968.096C786.223 966.112 785.855 964.448 785.119 963.104C784.415 961.76 783.471 960.752 782.287 960.08C781.103 959.408 779.839 959.072 778.495 959.072C777.119 959.072 775.839 959.408 774.655 960.08C773.471 960.752 772.511 961.76 771.775 963.104C771.039 964.448 770.671 966.112 770.671 968.096C770.671 970.08 771.039 971.744 771.775 973.088C772.511 974.432 773.455 975.44 774.607 976.112C775.791 976.784 777.055 977.12 778.399 977.12ZM800.038 980V945.44H804.07V980H800.038ZM831.781 980V946.4H852.229V949.712H835.813V961.52H849.781V964.784H835.813V980H831.781ZM871.079 980.576C868.839 980.576 866.823 980.064 865.031 979.04C863.239 978.016 861.815 976.576 860.759 974.72C859.735 972.832 859.223 970.624 859.223 968.096C859.223 965.568 859.751 963.376 860.807 961.52C861.863 959.632 863.287 958.176 865.079 957.152C866.903 956.128 868.935 955.616 871.175 955.616C873.415 955.616 875.431 956.128 877.223 957.152C879.015 958.176 880.423 959.632 881.447 961.52C882.503 963.376 883.031 965.568 883.031 968.096C883.031 970.624 882.503 972.832 881.447 974.72C880.391 976.576 878.951 978.016 877.127 979.04C875.335 980.064 873.319 980.576 871.079 980.576ZM871.079 977.12C872.455 977.12 873.735 976.784 874.919 976.112C876.103 975.44 877.063 974.432 877.799 973.088C878.535 971.744 878.903 970.08 878.903 968.096C878.903 966.112 878.535 964.448 877.799 963.104C877.095 961.76 876.151 960.752 874.967 960.08C873.783 959.408 872.519 959.072 871.175 959.072C869.799 959.072 868.519 959.408 867.335 960.08C866.151 960.752 865.191 961.76 864.455 963.104C863.719 964.448 863.351 966.112 863.351 968.096C863.351 970.08 863.719 971.744 864.455 973.088C865.191 974.432 866.135 975.44 867.287 976.112C868.471 976.784 869.735 977.12 871.079 977.12ZM892.717 980V956.192H896.365L896.701 960.752C897.437 959.184 898.557 957.936 900.061 957.008C901.565 956.08 903.421 955.616 905.629 955.616V959.84H904.525C903.117 959.84 901.821 960.096 900.637 960.608C899.453 961.088 898.509 961.92 897.805 963.104C897.101 964.288 896.749 965.92 896.749 968V980H892.717ZM943.402 980.576C941.098 980.576 939.002 980.128 937.114 979.232C935.258 978.304 933.77 976.88 932.65 974.96C931.53 973.04 930.97 970.592 930.97 967.616V946.4H935.002V967.664C935.002 970.928 935.786 973.296 937.354 974.768C938.922 976.24 940.97 976.976 943.498 976.976C946.026 976.976 948.058 976.24 949.594 974.768C951.13 973.296 951.898 970.928 951.898 967.664V946.4H955.93V967.616C955.93 970.592 955.37 973.04 954.25 974.96C953.13 976.88 951.626 978.304 949.738 979.232C947.85 980.128 945.738 980.576 943.402 980.576ZM966.598 980V956.192H970.246L970.486 960.464C971.254 958.96 972.358 957.776 973.798 956.912C975.238 956.048 976.87 955.616 978.694 955.616C981.51 955.616 983.75 956.48 985.414 958.208C987.11 959.904 987.958 962.528 987.958 966.08V980H983.926V966.512C983.926 961.552 981.878 959.072 977.782 959.072C975.734 959.072 974.022 959.824 972.646 961.328C971.302 962.8 970.63 964.912 970.63 967.664V980H966.598ZM1008.95 980.576C1006.58 980.576 1004.5 980.032 1002.71 978.944C1000.95 977.856 999.57 976.368 998.578 974.48C997.618 972.592 997.138 970.448 997.138 968.048C997.138 965.648 997.634 963.52 998.626 961.664C999.618 959.776 1000.99 958.304 1002.75 957.248C1004.51 956.16 1006.59 955.616 1008.99 955.616C1010.95 955.616 1012.67 956.016 1014.18 956.816C1015.68 957.616 1016.85 958.736 1017.68 960.176V945.44H1021.71V980H1018.07L1017.68 976.064C1016.91 977.216 1015.81 978.256 1014.37 979.184C1012.93 980.112 1011.12 980.576 1008.95 980.576ZM1009.38 977.072C1010.98 977.072 1012.39 976.704 1013.6 975.968C1014.85 975.2 1015.81 974.144 1016.48 972.8C1017.19 971.456 1017.54 969.888 1017.54 968.096C1017.54 966.304 1017.19 964.736 1016.48 963.392C1015.81 962.048 1014.85 961.008 1013.6 960.272C1012.39 959.504 1010.98 959.12 1009.38 959.12C1007.81 959.12 1006.4 959.504 1005.15 960.272C1003.94 961.008 1002.98 962.048 1002.27 963.392C1001.6 964.736 1001.27 966.304 1001.27 968.096C1001.27 969.888 1001.6 971.456 1002.27 972.8C1002.98 974.144 1003.94 975.2 1005.15 975.968C1006.4 976.704 1007.81 977.072 1009.38 977.072ZM1043.07 980.576C1040.8 980.576 1038.78 980.064 1037.02 979.04C1035.26 977.984 1033.87 976.528 1032.85 974.672C1031.85 972.816 1031.36 970.624 1031.36 968.096C1031.36 965.6 1031.85 963.424 1032.85 961.568C1033.84 959.68 1035.21 958.224 1036.97 957.2C1038.77 956.144 1040.83 955.616 1043.17 955.616C1045.47 955.616 1047.45 956.144 1049.12 957.2C1050.81 958.224 1052.11 959.584 1053.01 961.28C1053.9 962.976 1054.35 964.8 1054.35 966.752C1054.35 967.104 1054.33 967.456 1054.3 967.808C1054.3 968.16 1054.3 968.56 1054.3 969.008H1035.34C1035.44 970.832 1035.85 972.352 1036.59 973.568C1037.36 974.752 1038.3 975.648 1039.42 976.256C1040.57 976.864 1041.79 977.168 1043.07 977.168C1044.73 977.168 1046.13 976.784 1047.25 976.016C1048.37 975.248 1049.18 974.208 1049.69 972.896H1053.68C1053.04 975.104 1051.81 976.944 1049.98 978.416C1048.19 979.856 1045.89 980.576 1043.07 980.576ZM1043.07 959.024C1041.15 959.024 1039.44 959.616 1037.93 960.8C1036.46 961.952 1035.61 963.648 1035.39 965.888H1050.37C1050.27 963.744 1049.53 962.064 1048.16 960.848C1046.78 959.632 1045.09 959.024 1043.07 959.024ZM1063.78 980V956.192H1067.42L1067.76 960.752C1068.5 959.184 1069.62 957.936 1071.12 957.008C1072.62 956.08 1074.48 955.616 1076.69 955.616V959.84H1075.58C1074.18 959.84 1072.88 960.096 1071.7 960.608C1070.51 961.088 1069.57 961.92 1068.86 963.104C1068.16 964.288 1067.81 965.92 1067.81 968V980H1063.78ZM1094.14 972.512C1092.79 972.512 1091.56 972.336 1090.44 971.984L1088.04 974.24C1088.39 974.496 1088.83 974.72 1089.34 974.912C1089.88 975.072 1090.65 975.232 1091.64 975.392C1092.63 975.52 1094.03 975.664 1095.82 975.824C1099.02 976.048 1101.31 976.784 1102.68 978.032C1104.06 979.28 1104.75 980.912 1104.75 982.928C1104.75 984.304 1104.36 985.616 1103.59 986.864C1102.86 988.112 1101.71 989.136 1100.14 989.936C1098.6 990.736 1096.62 991.136 1094.19 991.136C1092.04 991.136 1090.14 990.848 1088.47 990.272C1086.81 989.728 1085.51 988.88 1084.59 987.728C1083.66 986.608 1083.19 985.184 1083.19 983.456C1083.19 982.56 1083.43 981.584 1083.91 980.528C1084.39 979.504 1085.29 978.528 1086.6 977.6C1085.9 977.312 1085.29 977.008 1084.78 976.688C1084.3 976.336 1083.85 975.952 1083.43 975.536V974.432L1087.51 970.4C1085.63 968.8 1084.68 966.688 1084.68 964.064C1084.68 962.496 1085.05 961.072 1085.79 959.792C1086.52 958.512 1087.59 957.504 1089 956.768C1090.41 956 1092.12 955.616 1094.14 955.616C1095.51 955.616 1096.76 955.808 1097.88 956.192H1106.67V959.216L1102.2 959.408C1103.13 960.752 1103.59 962.304 1103.59 964.064C1103.59 965.632 1103.21 967.056 1102.44 968.336C1101.71 969.616 1100.63 970.64 1099.23 971.408C1097.85 972.144 1096.15 972.512 1094.14 972.512ZM1094.14 969.2C1095.83 969.2 1097.18 968.768 1098.17 967.904C1099.19 967.008 1099.71 965.728 1099.71 964.064C1099.71 962.432 1099.19 961.184 1098.17 960.32C1097.18 959.424 1095.83 958.976 1094.14 958.976C1092.41 958.976 1091.03 959.424 1090.01 960.32C1089.02 961.184 1088.52 962.432 1088.52 964.064C1088.52 965.728 1089.02 967.008 1090.01 967.904C1091.03 968.768 1092.41 969.2 1094.14 969.2ZM1087.13 983.072C1087.13 984.672 1087.8 985.856 1089.15 986.624C1090.49 987.424 1092.17 987.824 1094.19 987.824C1096.17 987.824 1097.75 987.392 1098.94 986.528C1100.15 985.664 1100.76 984.512 1100.76 983.072C1100.76 982.048 1100.35 981.152 1099.51 980.384C1098.68 979.648 1097.15 979.216 1094.91 979.088C1093.15 978.96 1091.63 978.8 1090.35 978.608C1089.03 979.312 1088.17 980.064 1087.75 980.864C1087.34 981.696 1087.13 982.432 1087.13 983.072ZM1115.29 980V956.192H1118.94L1119.28 960.752C1120.01 959.184 1121.13 957.936 1122.64 957.008C1124.14 956.08 1126 955.616 1128.21 955.616V959.84H1127.1C1125.69 959.84 1124.4 960.096 1123.21 960.608C1122.03 961.088 1121.09 961.92 1120.38 963.104C1119.68 964.288 1119.33 965.92 1119.33 968V980H1115.29ZM1144.73 980.576C1142.75 980.576 1141.1 980.24 1139.79 979.568C1138.48 978.896 1137.5 978 1136.86 976.88C1136.22 975.76 1135.9 974.544 1135.9 973.232C1135.9 970.8 1136.83 968.928 1138.68 967.616C1140.54 966.304 1143.07 965.648 1146.27 965.648H1152.7V965.36C1152.7 963.28 1152.16 961.712 1151.07 960.656C1149.98 959.568 1148.52 959.024 1146.7 959.024C1145.13 959.024 1143.77 959.424 1142.62 960.224C1141.5 960.992 1140.8 962.128 1140.51 963.632H1136.38C1136.54 961.904 1137.12 960.448 1138.11 959.264C1139.13 958.08 1140.4 957.184 1141.9 956.576C1143.4 955.936 1145 955.616 1146.7 955.616C1150.03 955.616 1152.52 956.512 1154.19 958.304C1155.88 960.064 1156.73 962.416 1156.73 965.36V980H1153.13L1152.89 975.728C1152.22 977.072 1151.23 978.224 1149.92 979.184C1148.64 980.112 1146.91 980.576 1144.73 980.576ZM1145.36 977.168C1146.89 977.168 1148.2 976.768 1149.29 975.968C1150.41 975.168 1151.26 974.128 1151.84 972.848C1152.41 971.568 1152.7 970.224 1152.7 968.816V968.768H1146.6C1144.24 968.768 1142.56 969.184 1141.56 970.016C1140.6 970.816 1140.12 971.824 1140.12 973.04C1140.12 974.288 1140.57 975.296 1141.47 976.064C1142.4 976.8 1143.69 977.168 1145.36 977.168ZM1177.66 980.576C1175.29 980.576 1173.21 980.032 1171.42 978.944C1169.66 977.856 1168.28 976.368 1167.29 974.48C1166.33 972.592 1165.85 970.448 1165.85 968.048C1165.85 965.648 1166.35 963.52 1167.34 961.664C1168.33 959.776 1169.71 958.304 1171.47 957.248C1173.23 956.16 1175.31 955.616 1177.71 955.616C1179.66 955.616 1181.39 956.016 1182.89 956.816C1184.4 957.616 1185.56 958.736 1186.4 960.176V945.44H1190.43V980H1186.78L1186.4 976.064C1185.63 977.216 1184.52 978.256 1183.08 979.184C1181.64 980.112 1179.84 980.576 1177.66 980.576ZM1178.09 977.072C1179.69 977.072 1181.1 976.704 1182.32 975.968C1183.56 975.2 1184.52 974.144 1185.2 972.8C1185.9 971.456 1186.25 969.888 1186.25 968.096C1186.25 966.304 1185.9 964.736 1185.2 963.392C1184.52 962.048 1183.56 961.008 1182.32 960.272C1181.1 959.504 1179.69 959.12 1178.09 959.12C1176.52 959.12 1175.12 959.504 1173.87 960.272C1172.65 961.008 1171.69 962.048 1170.99 963.392C1170.32 964.736 1169.98 966.304 1169.98 968.096C1169.98 969.888 1170.32 971.456 1170.99 972.8C1171.69 974.144 1172.65 975.2 1173.87 975.968C1175.12 976.704 1176.52 977.072 1178.09 977.072ZM1228.81 980.576C1226.34 980.576 1224.2 980.128 1222.38 979.232C1220.55 978.336 1219.14 977.088 1218.15 975.488C1217.16 973.888 1216.66 972.032 1216.66 969.92H1220.89C1220.89 971.232 1221.19 972.448 1221.8 973.568C1222.41 974.656 1223.29 975.536 1224.44 976.208C1225.62 976.848 1227.08 977.168 1228.81 977.168C1231.08 977.168 1232.84 976.624 1234.09 975.536C1235.34 974.448 1235.96 973.088 1235.96 971.456C1235.96 970.112 1235.67 969.04 1235.1 968.24C1234.52 967.408 1233.74 966.736 1232.74 966.224C1231.78 965.712 1230.66 965.264 1229.38 964.88C1228.14 964.496 1226.82 964.064 1225.45 963.584C1222.86 962.688 1220.94 961.584 1219.69 960.272C1218.44 958.928 1217.82 957.184 1217.82 955.04C1217.78 953.248 1218.2 951.664 1219.06 950.288C1219.93 948.88 1221.14 947.792 1222.71 947.024C1224.31 946.224 1226.2 945.824 1228.38 945.824C1230.52 945.824 1232.38 946.224 1233.94 947.024C1235.54 947.824 1236.78 948.928 1237.64 950.336C1238.54 951.744 1239 953.344 1239.03 955.136H1234.81C1234.81 954.208 1234.57 953.296 1234.09 952.4C1233.61 951.472 1232.87 950.72 1231.88 950.144C1230.92 949.568 1229.7 949.28 1228.23 949.28C1226.41 949.248 1224.9 949.712 1223.72 950.672C1222.57 951.632 1221.99 952.96 1221.99 954.656C1221.99 956.096 1222.39 957.2 1223.19 957.968C1224.02 958.736 1225.18 959.376 1226.65 959.888C1228.12 960.368 1229.82 960.928 1231.74 961.568C1233.34 962.144 1234.78 962.816 1236.06 963.584C1237.34 964.352 1238.33 965.344 1239.03 966.56C1239.77 967.776 1240.14 969.328 1240.14 971.216C1240.14 972.816 1239.72 974.336 1238.89 975.776C1238.06 977.184 1236.79 978.336 1235.1 979.232C1233.43 980.128 1231.34 980.576 1228.81 980.576ZM1259.1 980C1256.93 980 1255.21 979.472 1253.97 978.416C1252.72 977.36 1252.09 975.456 1252.09 972.704V959.6H1247.97V956.192H1252.09L1252.62 950.48H1256.13V956.192H1263.13V959.6H1256.13V972.704C1256.13 974.208 1256.43 975.232 1257.04 975.776C1257.65 976.288 1258.72 976.544 1260.25 976.544H1262.75V980H1259.1ZM1281.03 980.576C1278.21 980.576 1275.97 979.728 1274.31 978.032C1272.64 976.304 1271.81 973.664 1271.81 970.112V956.192H1275.84V969.68C1275.84 974.64 1277.87 977.12 1281.94 977.12C1284.02 977.12 1285.73 976.384 1287.07 974.912C1288.45 973.408 1289.14 971.28 1289.14 968.528V956.192H1293.17V980H1289.52L1289.23 975.728C1288.5 977.232 1287.39 978.416 1285.92 979.28C1284.48 980.144 1282.85 980.576 1281.03 980.576ZM1314.69 980.576C1312.32 980.576 1310.24 980.032 1308.45 978.944C1306.69 977.856 1305.31 976.368 1304.32 974.48C1303.36 972.592 1302.88 970.448 1302.88 968.048C1302.88 965.648 1303.37 963.52 1304.37 961.664C1305.36 959.776 1306.73 958.304 1308.49 957.248C1310.25 956.16 1312.33 955.616 1314.73 955.616C1316.69 955.616 1318.41 956.016 1319.92 956.816C1321.42 957.616 1322.59 958.736 1323.42 960.176V945.44H1327.45V980H1323.81L1323.42 976.064C1322.65 977.216 1321.55 978.256 1320.11 979.184C1318.67 980.112 1316.86 980.576 1314.69 980.576ZM1315.12 977.072C1316.72 977.072 1318.13 976.704 1319.34 975.968C1320.59 975.2 1321.55 974.144 1322.22 972.8C1322.93 971.456 1323.28 969.888 1323.28 968.096C1323.28 966.304 1322.93 964.736 1322.22 963.392C1321.55 962.048 1320.59 961.008 1319.34 960.272C1318.13 959.504 1316.72 959.12 1315.12 959.12C1313.55 959.12 1312.14 959.504 1310.89 960.272C1309.68 961.008 1308.72 962.048 1308.01 963.392C1307.34 964.736 1307.01 966.304 1307.01 968.096C1307.01 969.888 1307.34 971.456 1308.01 972.8C1308.72 974.144 1309.68 975.2 1310.89 975.968C1312.14 976.704 1313.55 977.072 1315.12 977.072ZM1348.81 980.576C1346.54 980.576 1344.52 980.064 1342.76 979.04C1341 977.984 1339.61 976.528 1338.59 974.672C1337.59 972.816 1337.1 970.624 1337.1 968.096C1337.1 965.6 1337.59 963.424 1338.59 961.568C1339.58 959.68 1340.95 958.224 1342.71 957.2C1344.51 956.144 1346.57 955.616 1348.91 955.616C1351.21 955.616 1353.19 956.144 1354.86 957.2C1356.55 958.224 1357.85 959.584 1358.75 961.28C1359.64 962.976 1360.09 964.8 1360.09 966.752C1360.09 967.104 1360.07 967.456 1360.04 967.808C1360.04 968.16 1360.04 968.56 1360.04 969.008H1341.08C1341.18 970.832 1341.59 972.352 1342.33 973.568C1343.1 974.752 1344.04 975.648 1345.16 976.256C1346.31 976.864 1347.53 977.168 1348.81 977.168C1350.47 977.168 1351.87 976.784 1352.99 976.016C1354.11 975.248 1354.92 974.208 1355.43 972.896H1359.42C1358.78 975.104 1357.55 976.944 1355.72 978.416C1353.93 979.856 1351.63 980.576 1348.81 980.576ZM1348.81 959.024C1346.89 959.024 1345.18 959.616 1343.67 960.8C1342.2 961.952 1341.35 963.648 1341.13 965.888H1356.11C1356.01 963.744 1355.27 962.064 1353.9 960.848C1352.52 959.632 1350.83 959.024 1348.81 959.024ZM1369.51 980V956.192H1373.16L1373.4 960.464C1374.17 958.96 1375.27 957.776 1376.71 956.912C1378.15 956.048 1379.79 955.616 1381.61 955.616C1384.43 955.616 1386.67 956.48 1388.33 958.208C1390.03 959.904 1390.87 962.528 1390.87 966.08V980H1386.84V966.512C1386.84 961.552 1384.79 959.072 1380.7 959.072C1378.65 959.072 1376.94 959.824 1375.56 961.328C1374.22 962.8 1373.55 964.912 1373.55 967.664V980H1369.51ZM1410.47 980C1408.3 980 1406.58 979.472 1405.34 978.416C1404.09 977.36 1403.46 975.456 1403.46 972.704V959.6H1399.34V956.192H1403.46L1403.99 950.48H1407.5V956.192H1414.5V959.6H1407.5V972.704C1407.5 974.208 1407.8 975.232 1408.41 975.776C1409.02 976.288 1410.09 976.544 1411.62 976.544H1414.12V980H1410.47ZM1432.83 980.576C1429.98 980.576 1427.61 979.856 1425.72 978.416C1423.83 976.976 1422.73 975.024 1422.41 972.56H1426.54C1426.79 973.808 1427.45 974.896 1428.51 975.824C1429.59 976.72 1431.05 977.168 1432.87 977.168C1434.57 977.168 1435.82 976.816 1436.62 976.112C1437.42 975.376 1437.82 974.512 1437.82 973.52C1437.82 972.08 1437.29 971.12 1436.23 970.64C1435.21 970.16 1433.75 969.728 1431.87 969.344C1430.59 969.088 1429.31 968.72 1428.03 968.24C1426.75 967.76 1425.67 967.088 1424.81 966.224C1423.95 965.328 1423.51 964.16 1423.51 962.72C1423.51 960.64 1424.28 958.944 1425.82 957.632C1427.39 956.288 1429.5 955.616 1432.15 955.616C1434.68 955.616 1436.75 956.256 1438.35 957.536C1439.98 958.784 1440.92 960.576 1441.18 962.912H1437.19C1437.03 961.696 1436.51 960.752 1435.61 960.08C1434.75 959.376 1433.58 959.024 1432.11 959.024C1430.67 959.024 1429.55 959.328 1428.75 959.936C1427.98 960.544 1427.59 961.344 1427.59 962.336C1427.59 963.296 1428.09 964.048 1429.08 964.592C1430.11 965.136 1431.48 965.6 1433.21 965.984C1434.68 966.304 1436.07 966.704 1437.39 967.184C1438.73 967.632 1439.82 968.32 1440.65 969.248C1441.51 970.144 1441.95 971.456 1441.95 973.184C1441.98 975.328 1441.16 977.104 1439.5 978.512C1437.87 979.888 1435.64 980.576 1432.83 980.576Z" fill="#2D2926"/>
</svg>
