<svg width="1920" height="1080" viewBox="0 0 1920 1080" fill="none" xmlns="http://www.w3.org/2000/svg">
<path d="M449.024 419.422C449.024 424.922 447.733 430.12 445.436 434.731L548.854 537.443L763.376 458.331C763.334 457.641 763.313 456.946 763.313 456.246C763.313 437.235 778.749 421.824 797.789 421.824C816.829 421.824 832.265 437.235 832.265 456.246C832.265 475.257 816.829 490.668 797.789 490.668C785.704 490.668 775.071 484.459 768.915 475.062L598.527 537.899H826.187C830.084 523.154 843.532 512.282 859.524 512.282C878.565 512.282 894 527.694 894 546.705C894 565.716 878.565 581.127 859.524 581.127C843.532 581.127 830.084 570.255 826.187 555.51H567.045L605.839 594.039C610.314 591.919 615.318 590.733 620.601 590.733C639.641 590.733 655.076 606.145 655.076 625.155C655.076 644.166 639.641 659.578 620.601 659.578C601.56 659.578 586.125 644.166 586.125 625.155C586.125 617.83 588.417 611.038 592.324 605.457L544.4 557.86L270.227 658.972C270.231 659.173 270.232 659.375 270.232 659.578C270.232 678.589 254.797 694 235.757 694C216.717 694 201.281 678.589 201.281 659.578C201.281 640.567 216.717 625.155 235.757 625.155C248.357 625.155 259.379 631.905 265.393 641.98L499.864 555.51H140.813C136.916 570.255 123.468 581.127 107.476 581.127C88.4353 581.127 73 565.716 73 546.705C73 527.694 88.4353 512.282 107.476 512.282C123.468 512.282 136.916 523.154 140.813 537.899H524.301L433.78 447.995C428.287 451.689 421.67 453.845 414.549 453.845C395.508 453.845 380.073 438.433 380.073 419.422C380.073 400.411 395.508 385 414.549 385C433.589 385 449.024 400.411 449.024 419.422Z" fill="#2D2926"/>
<path fill-rule="evenodd" clip-rule="evenodd" d="M950 559.644V687.733H988.798V634.381H1122.53V687.733H1161.63V559.644C1161.63 551.267 1157.61 544.065 1149.58 538.039C1141.54 532.013 1131.84 529 1120.48 529H990.856C979.687 529 970.085 532.013 962.051 538.039C954.017 544.065 950 551.267 950 559.644ZM1122.53 605.28H988.798V566.038C988.798 561.922 989.092 559.644 989.68 559.203C990.464 558.615 993.599 558.322 999.086 558.322H1112.25C1117.54 558.322 1120.58 558.615 1121.36 559.203C1122.14 559.644 1122.53 561.922 1122.53 566.038V605.28Z" fill="#2D2926"/>
<path d="M1262.8 558.322V687.733H1296.22V558.322H1384.35V529H1176.99V558.322H1262.8Z" fill="#2D2926"/>
<path d="M1443.84 692C1432.94 692 1423.57 688.906 1415.73 682.718C1407.89 676.53 1403.97 669.135 1403.97 660.532V529H1441.83V653.967C1441.83 658.193 1442.12 660.607 1442.69 661.211C1443.46 661.664 1446.52 661.89 1451.87 661.89H1562.3C1567.46 661.89 1570.42 661.664 1571.19 661.211C1571.95 660.607 1572.33 658.193 1572.33 653.967V529H1610.48V660.532C1610.48 669.135 1606.56 676.53 1598.72 682.718C1590.88 688.906 1581.51 692 1570.61 692H1443.84Z" fill="#2D2926"/>
<path d="M1651.25 682.718C1659.09 688.906 1668.46 692 1679.36 692H1806.13C1817.03 692 1826.4 688.906 1834.24 682.718C1842.08 676.53 1846 669.135 1846 660.532V627.026C1846 618.424 1842.08 611.028 1834.24 604.84C1826.4 598.501 1817.03 595.332 1806.13 595.332H1687.39C1682.04 595.332 1678.98 595.106 1678.21 594.653C1677.64 594.2 1677.35 591.861 1677.35 587.635V567.033C1677.35 562.807 1677.64 560.468 1678.21 560.015C1678.98 559.412 1682.04 559.11 1687.39 559.11H1797.82C1803.17 559.11 1806.13 559.412 1806.71 560.015C1807.47 560.468 1807.85 562.807 1807.85 567.033V572.919H1846V560.468C1846 551.865 1842.08 544.47 1834.24 538.282C1826.4 532.094 1817.03 529 1806.13 529H1679.36C1668.46 529 1659.09 532.094 1651.25 538.282C1643.41 544.47 1639.49 551.865 1639.49 560.468V593.974C1639.49 602.576 1643.41 609.972 1651.25 616.16C1659.09 622.348 1668.46 625.442 1679.36 625.442H1797.82C1803.17 625.442 1806.13 625.744 1806.71 626.347C1807.47 626.8 1807.85 629.139 1807.85 633.365V653.967C1807.85 658.193 1807.47 660.607 1806.71 661.211C1806.13 661.664 1803.17 661.89 1797.82 661.89H1687.39C1682.04 661.89 1678.98 661.664 1678.21 661.211C1677.64 660.607 1677.35 658.193 1677.35 653.967V648.081H1639.49V660.532C1639.49 669.135 1643.41 676.53 1651.25 682.718Z" fill="#2D2926"/>
<path d="M959.32 490L970.672 459.2H974.588L985.896 490H981.98L979.164 482.08H966.052L963.192 490H959.32ZM967.152 479.088H978.064L972.608 463.864L967.152 479.088ZM993.995 490V468.176H997.339L997.559 472.092C998.263 470.713 999.275 469.628 1000.59 468.836C1001.91 468.044 1003.41 467.648 1005.08 467.648C1007.66 467.648 1009.72 468.44 1011.24 470.024C1012.8 471.579 1013.57 473.984 1013.57 477.24V490H1009.88V477.636C1009.88 473.089 1008 470.816 1004.25 470.816C1002.37 470.816 1000.8 471.505 999.539 472.884C998.307 474.233 997.691 476.169 997.691 478.692V490H993.995ZM1030.17 490.528C1028.36 490.528 1026.85 490.22 1025.64 489.604C1024.44 488.988 1023.55 488.167 1022.96 487.14C1022.37 486.113 1022.08 484.999 1022.08 483.796C1022.08 481.567 1022.93 479.851 1024.63 478.648C1026.33 477.445 1028.65 476.844 1031.58 476.844H1037.48V476.58C1037.48 474.673 1036.98 473.236 1035.98 472.268C1034.99 471.271 1033.65 470.772 1031.98 470.772C1030.54 470.772 1029.29 471.139 1028.24 471.872C1027.21 472.576 1026.57 473.617 1026.3 474.996H1022.52C1022.67 473.412 1023.19 472.077 1024.1 470.992C1025.04 469.907 1026.2 469.085 1027.58 468.528C1028.96 467.941 1030.42 467.648 1031.98 467.648C1035.03 467.648 1037.32 468.469 1038.84 470.112C1040.4 471.725 1041.17 473.881 1041.17 476.58V490H1037.87L1037.65 486.084C1037.04 487.316 1036.13 488.372 1034.93 489.252C1033.75 490.103 1032.17 490.528 1030.17 490.528ZM1030.75 487.404C1032.15 487.404 1033.36 487.037 1034.35 486.304C1035.38 485.571 1036.16 484.617 1036.69 483.444C1037.21 482.271 1037.48 481.039 1037.48 479.748V479.704H1031.89C1029.72 479.704 1028.18 480.085 1027.27 480.848C1026.39 481.581 1025.95 482.505 1025.95 483.62C1025.95 484.764 1026.36 485.688 1027.18 486.392C1028.03 487.067 1029.22 487.404 1030.75 487.404ZM1050.46 490V458.32H1054.16V490H1050.46ZM1066.33 499.68L1071.74 487.888H1070.47L1061.8 468.176H1065.8L1073.02 485.16L1080.67 468.176H1084.5L1070.2 499.68H1066.33ZM1099.21 490.528C1096.6 490.528 1094.43 489.868 1092.7 488.548C1090.97 487.228 1089.96 485.439 1089.67 483.18H1093.45C1093.68 484.324 1094.29 485.321 1095.25 486.172C1096.25 486.993 1097.59 487.404 1099.26 487.404C1100.81 487.404 1101.96 487.081 1102.69 486.436C1103.42 485.761 1103.79 484.969 1103.79 484.06C1103.79 482.74 1103.31 481.86 1102.34 481.42C1101.4 480.98 1100.06 480.584 1098.33 480.232C1097.16 479.997 1095.99 479.66 1094.81 479.22C1093.64 478.78 1092.66 478.164 1091.87 477.372C1091.07 476.551 1090.68 475.48 1090.68 474.16C1090.68 472.253 1091.38 470.699 1092.79 469.496C1094.23 468.264 1096.16 467.648 1098.6 467.648C1100.91 467.648 1102.81 468.235 1104.27 469.408C1105.77 470.552 1106.63 472.195 1106.87 474.336H1103.22C1103.07 473.221 1102.59 472.356 1101.77 471.74C1100.97 471.095 1099.9 470.772 1098.55 470.772C1097.23 470.772 1096.21 471.051 1095.47 471.608C1094.77 472.165 1094.42 472.899 1094.42 473.808C1094.42 474.688 1094.87 475.377 1095.78 475.876C1096.72 476.375 1097.98 476.8 1099.57 477.152C1100.91 477.445 1102.19 477.812 1103.39 478.252C1104.63 478.663 1105.62 479.293 1106.39 480.144C1107.18 480.965 1107.57 482.168 1107.57 483.752C1107.6 485.717 1106.85 487.345 1105.33 488.636C1103.83 489.897 1101.79 490.528 1099.21 490.528ZM1118.84 463.336C1118.1 463.336 1117.49 463.101 1116.99 462.632C1116.52 462.133 1116.29 461.517 1116.29 460.784C1116.29 460.08 1116.52 459.493 1116.99 459.024C1117.49 458.555 1118.1 458.32 1118.84 458.32C1119.54 458.32 1120.14 458.555 1120.64 459.024C1121.14 459.493 1121.39 460.08 1121.39 460.784C1121.39 461.517 1121.14 462.133 1120.64 462.632C1120.14 463.101 1119.54 463.336 1118.84 463.336ZM1116.99 490V468.176H1120.69V490H1116.99ZM1139.22 490.528C1136.61 490.528 1134.44 489.868 1132.71 488.548C1130.98 487.228 1129.97 485.439 1129.67 483.18H1133.46C1133.69 484.324 1134.29 485.321 1135.26 486.172C1136.26 486.993 1137.59 487.404 1139.26 487.404C1140.82 487.404 1141.96 487.081 1142.7 486.436C1143.43 485.761 1143.8 484.969 1143.8 484.06C1143.8 482.74 1143.31 481.86 1142.34 481.42C1141.41 480.98 1140.07 480.584 1138.34 480.232C1137.17 479.997 1135.99 479.66 1134.82 479.22C1133.65 478.78 1132.66 478.164 1131.87 477.372C1131.08 476.551 1130.68 475.48 1130.68 474.16C1130.68 472.253 1131.39 470.699 1132.8 469.496C1134.23 468.264 1136.17 467.648 1138.6 467.648C1140.92 467.648 1142.81 468.235 1144.28 469.408C1145.78 470.552 1146.64 472.195 1146.88 474.336H1143.22C1143.08 473.221 1142.59 472.356 1141.77 471.74C1140.98 471.095 1139.91 470.772 1138.56 470.772C1137.24 470.772 1136.21 471.051 1135.48 471.608C1134.78 472.165 1134.42 472.899 1134.42 473.808C1134.42 474.688 1134.88 475.377 1135.79 475.876C1136.73 476.375 1137.99 476.8 1139.57 477.152C1140.92 477.445 1142.2 477.812 1143.4 478.252C1144.63 478.663 1145.63 479.293 1146.39 480.144C1147.18 480.965 1147.58 482.168 1147.58 483.752C1147.61 485.717 1146.86 487.345 1145.34 488.636C1143.84 489.897 1141.8 490.528 1139.22 490.528ZM1179.42 490V462.236H1170.23V459.2H1192.31V462.236H1183.12V490H1179.42ZM1206.34 490.528C1204.28 490.528 1202.44 490.059 1200.79 489.12C1199.15 488.181 1197.85 486.861 1196.88 485.16C1195.94 483.429 1195.47 481.405 1195.47 479.088C1195.47 476.771 1195.95 474.761 1196.92 473.06C1197.89 471.329 1199.19 469.995 1200.84 469.056C1202.51 468.117 1204.37 467.648 1206.43 467.648C1208.48 467.648 1210.33 468.117 1211.97 469.056C1213.61 469.995 1214.9 471.329 1215.84 473.06C1216.81 474.761 1217.29 476.771 1217.29 479.088C1217.29 481.405 1216.81 483.429 1215.84 485.16C1214.87 486.861 1213.55 488.181 1211.88 489.12C1210.24 490.059 1208.39 490.528 1206.34 490.528ZM1206.34 487.36C1207.6 487.36 1208.77 487.052 1209.86 486.436C1210.94 485.82 1211.82 484.896 1212.5 483.664C1213.17 482.432 1213.51 480.907 1213.51 479.088C1213.51 477.269 1213.17 475.744 1212.5 474.512C1211.85 473.28 1210.99 472.356 1209.9 471.74C1208.82 471.124 1207.66 470.816 1206.43 470.816C1205.16 470.816 1203.99 471.124 1202.91 471.74C1201.82 472.356 1200.94 473.28 1200.27 474.512C1199.59 475.744 1199.25 477.269 1199.25 479.088C1199.25 480.907 1199.59 482.432 1200.27 483.664C1200.94 484.896 1201.81 485.82 1202.86 486.436C1203.95 487.052 1205.11 487.36 1206.34 487.36ZM1236.12 490.528C1234.06 490.528 1232.21 490.059 1230.57 489.12C1228.93 488.181 1227.62 486.861 1226.66 485.16C1225.72 483.429 1225.25 481.405 1225.25 479.088C1225.25 476.771 1225.73 474.761 1226.7 473.06C1227.67 471.329 1228.97 469.995 1230.62 469.056C1232.29 468.117 1234.15 467.648 1236.2 467.648C1238.26 467.648 1240.11 468.117 1241.75 469.056C1243.39 469.995 1244.68 471.329 1245.62 473.06C1246.59 474.761 1247.07 476.771 1247.07 479.088C1247.07 481.405 1246.59 483.429 1245.62 485.16C1244.65 486.861 1243.33 488.181 1241.66 489.12C1240.02 490.059 1238.17 490.528 1236.12 490.528ZM1236.12 487.36C1237.38 487.36 1238.55 487.052 1239.64 486.436C1240.72 485.82 1241.6 484.896 1242.28 483.664C1242.95 482.432 1243.29 480.907 1243.29 479.088C1243.29 477.269 1242.95 475.744 1242.28 474.512C1241.63 473.28 1240.77 472.356 1239.68 471.74C1238.59 471.124 1237.44 470.816 1236.2 470.816C1234.94 470.816 1233.77 471.124 1232.68 471.74C1231.6 472.356 1230.72 473.28 1230.04 474.512C1229.37 475.744 1229.03 477.269 1229.03 479.088C1229.03 480.907 1229.37 482.432 1230.04 483.664C1230.72 484.896 1231.58 485.82 1232.64 486.436C1233.73 487.052 1234.88 487.36 1236.12 487.36ZM1255.95 490V458.32H1259.65V490H1255.95ZM1285.05 490V459.2H1303.79V462.236H1288.75V473.06H1301.55V476.052H1288.75V490H1285.05ZM1321.07 490.528C1319.02 490.528 1317.17 490.059 1315.53 489.12C1313.89 488.181 1312.58 486.861 1311.61 485.16C1310.67 483.429 1310.2 481.405 1310.2 479.088C1310.2 476.771 1310.69 474.761 1311.66 473.06C1312.62 471.329 1313.93 469.995 1315.57 469.056C1317.24 468.117 1319.11 467.648 1321.16 467.648C1323.21 467.648 1325.06 468.117 1326.7 469.056C1328.35 469.995 1329.64 471.329 1330.58 473.06C1331.54 474.761 1332.03 476.771 1332.03 479.088C1332.03 481.405 1331.54 483.429 1330.58 485.16C1329.61 486.861 1328.29 488.181 1326.62 489.12C1324.97 490.059 1323.13 490.528 1321.07 490.528ZM1321.07 487.36C1322.33 487.36 1323.51 487.052 1324.59 486.436C1325.68 485.82 1326.56 484.896 1327.23 483.664C1327.91 482.432 1328.24 480.907 1328.24 479.088C1328.24 477.269 1327.91 475.744 1327.23 474.512C1326.59 473.28 1325.72 472.356 1324.64 471.74C1323.55 471.124 1322.39 470.816 1321.16 470.816C1319.9 470.816 1318.73 471.124 1317.64 471.74C1316.55 472.356 1315.67 473.28 1315 474.512C1314.33 475.744 1313.99 477.269 1313.99 479.088C1313.99 480.907 1314.33 482.432 1315 483.664C1315.67 484.896 1316.54 485.82 1317.6 486.436C1318.68 487.052 1319.84 487.36 1321.07 487.36ZM1340.91 490V468.176H1344.25L1344.56 472.356C1345.23 470.919 1346.26 469.775 1347.64 468.924C1349.02 468.073 1350.72 467.648 1352.74 467.648V471.52H1351.73C1350.44 471.52 1349.25 471.755 1348.17 472.224C1347.08 472.664 1346.22 473.427 1345.57 474.512C1344.93 475.597 1344.6 477.093 1344.6 479V490H1340.91ZM1387.37 490.528C1385.26 490.528 1383.33 490.117 1381.6 489.296C1379.9 488.445 1378.54 487.14 1377.51 485.38C1376.49 483.62 1375.97 481.376 1375.97 478.648V459.2H1379.67V478.692C1379.67 481.684 1380.39 483.855 1381.82 485.204C1383.26 486.553 1385.14 487.228 1387.46 487.228C1389.77 487.228 1391.64 486.553 1393.04 485.204C1394.45 483.855 1395.16 481.684 1395.16 478.692V459.2H1398.85V478.648C1398.85 481.376 1398.34 483.62 1397.31 485.38C1396.29 487.14 1394.91 488.445 1393.18 489.296C1391.45 490.117 1389.51 490.528 1387.37 490.528ZM1408.63 490V468.176H1411.98L1412.2 472.092C1412.9 470.713 1413.91 469.628 1415.23 468.836C1416.55 468.044 1418.05 467.648 1419.72 467.648C1422.3 467.648 1424.35 468.44 1425.88 470.024C1427.43 471.579 1428.21 473.984 1428.21 477.24V490H1424.52V477.636C1424.52 473.089 1422.64 470.816 1418.88 470.816C1417.01 470.816 1415.44 471.505 1414.18 472.884C1412.94 474.233 1412.33 476.169 1412.33 478.692V490H1408.63ZM1447.45 490.528C1445.28 490.528 1443.37 490.029 1441.73 489.032C1440.12 488.035 1438.86 486.671 1437.95 484.94C1437.07 483.209 1436.63 481.244 1436.63 479.044C1436.63 476.844 1437.08 474.893 1437.99 473.192C1438.9 471.461 1440.16 470.112 1441.77 469.144C1443.39 468.147 1445.29 467.648 1447.49 467.648C1449.28 467.648 1450.87 468.015 1452.25 468.748C1453.63 469.481 1454.7 470.508 1455.46 471.828V458.32H1459.15V490H1455.81L1455.46 486.392C1454.75 487.448 1453.74 488.401 1452.42 489.252C1451.1 490.103 1449.45 490.528 1447.45 490.528ZM1447.85 487.316C1449.31 487.316 1450.6 486.979 1451.72 486.304C1452.86 485.6 1453.74 484.632 1454.36 483.4C1455 482.168 1455.33 480.731 1455.33 479.088C1455.33 477.445 1455 476.008 1454.36 474.776C1453.74 473.544 1452.86 472.591 1451.72 471.916C1450.6 471.212 1449.31 470.86 1447.85 470.86C1446.41 470.86 1445.12 471.212 1443.97 471.916C1442.86 472.591 1441.98 473.544 1441.33 474.776C1440.72 476.008 1440.41 477.445 1440.41 479.088C1440.41 480.731 1440.72 482.168 1441.33 483.4C1441.98 484.632 1442.86 485.6 1443.97 486.304C1445.12 486.979 1446.41 487.316 1447.85 487.316ZM1478.73 490.528C1476.65 490.528 1474.8 490.059 1473.19 489.12C1471.57 488.152 1470.3 486.817 1469.36 485.116C1468.45 483.415 1468 481.405 1468 479.088C1468 476.8 1468.45 474.805 1469.36 473.104C1470.27 471.373 1471.53 470.039 1473.14 469.1C1474.79 468.132 1476.68 467.648 1478.82 467.648C1480.93 467.648 1482.75 468.132 1484.28 469.1C1485.83 470.039 1487.02 471.285 1487.84 472.84C1488.66 474.395 1489.07 476.067 1489.07 477.856C1489.07 478.179 1489.06 478.501 1489.03 478.824C1489.03 479.147 1489.03 479.513 1489.03 479.924H1471.65C1471.74 481.596 1472.12 482.989 1472.79 484.104C1473.5 485.189 1474.36 486.011 1475.39 486.568C1476.44 487.125 1477.56 487.404 1478.73 487.404C1480.26 487.404 1481.53 487.052 1482.56 486.348C1483.59 485.644 1484.33 484.691 1484.8 483.488H1488.46C1487.87 485.512 1486.74 487.199 1485.07 488.548C1483.43 489.868 1481.31 490.528 1478.73 490.528ZM1478.73 470.772C1476.97 470.772 1475.4 471.315 1474.02 472.4C1472.67 473.456 1471.9 475.011 1471.69 477.064H1485.42C1485.33 475.099 1484.66 473.559 1483.4 472.444C1482.13 471.329 1480.58 470.772 1478.73 470.772ZM1497.71 490V468.176H1501.05L1501.36 472.356C1502.04 470.919 1503.06 469.775 1504.44 468.924C1505.82 468.073 1507.52 467.648 1509.55 467.648V471.52H1508.53C1507.24 471.52 1506.06 471.755 1504.97 472.224C1503.89 472.664 1503.02 473.427 1502.37 474.512C1501.73 475.597 1501.41 477.093 1501.41 479V490H1497.71ZM1525.54 483.136C1524.31 483.136 1523.18 482.975 1522.16 482.652L1519.96 484.72C1520.28 484.955 1520.67 485.16 1521.14 485.336C1521.64 485.483 1522.35 485.629 1523.26 485.776C1524.16 485.893 1525.44 486.025 1527.08 486.172C1530.02 486.377 1532.11 487.052 1533.38 488.196C1534.64 489.34 1535.27 490.836 1535.27 492.684C1535.27 493.945 1534.92 495.148 1534.21 496.292C1533.54 497.436 1532.48 498.375 1531.04 499.108C1529.64 499.841 1527.82 500.208 1525.59 500.208C1523.62 500.208 1521.88 499.944 1520.35 499.416C1518.83 498.917 1517.64 498.14 1516.79 497.084C1515.94 496.057 1515.51 494.752 1515.51 493.168C1515.51 492.347 1515.73 491.452 1516.17 490.484C1516.61 489.545 1517.43 488.651 1518.64 487.8C1517.99 487.536 1517.43 487.257 1516.96 486.964C1516.52 486.641 1516.11 486.289 1515.73 485.908V484.896L1519.47 481.2C1517.74 479.733 1516.88 477.797 1516.88 475.392C1516.88 473.955 1517.21 472.649 1517.89 471.476C1518.56 470.303 1519.54 469.379 1520.84 468.704C1522.13 468 1523.7 467.648 1525.54 467.648C1526.8 467.648 1527.95 467.824 1528.98 468.176H1537.03V470.948L1532.94 471.124C1533.79 472.356 1534.21 473.779 1534.21 475.392C1534.21 476.829 1533.86 478.135 1533.16 479.308C1532.48 480.481 1531.5 481.42 1530.21 482.124C1528.95 482.799 1527.39 483.136 1525.54 483.136ZM1525.54 480.1C1527.1 480.1 1528.33 479.704 1529.24 478.912C1530.18 478.091 1530.65 476.917 1530.65 475.392C1530.65 473.896 1530.18 472.752 1529.24 471.96C1528.33 471.139 1527.1 470.728 1525.54 470.728C1523.96 470.728 1522.7 471.139 1521.76 471.96C1520.85 472.752 1520.4 473.896 1520.4 475.392C1520.4 476.917 1520.85 478.091 1521.76 478.912C1522.7 479.704 1523.96 480.1 1525.54 480.1ZM1519.12 492.816C1519.12 494.283 1519.74 495.368 1520.97 496.072C1522.2 496.805 1523.74 497.172 1525.59 497.172C1527.41 497.172 1528.86 496.776 1529.94 495.984C1531.06 495.192 1531.62 494.136 1531.62 492.816C1531.62 491.877 1531.23 491.056 1530.47 490.352C1529.71 489.677 1528.3 489.281 1526.25 489.164C1524.63 489.047 1523.24 488.9 1522.07 488.724C1520.86 489.369 1520.07 490.059 1519.69 490.792C1519.31 491.555 1519.12 492.229 1519.12 492.816ZM1544.94 490V468.176H1548.28L1548.59 472.356C1549.26 470.919 1550.29 469.775 1551.67 468.924C1553.05 468.073 1554.75 467.648 1556.77 467.648V471.52H1555.76C1554.47 471.52 1553.28 471.755 1552.2 472.224C1551.11 472.664 1550.25 473.427 1549.6 474.512C1548.96 475.597 1548.63 477.093 1548.63 479V490H1544.94ZM1571.92 490.528C1570.1 490.528 1568.59 490.22 1567.39 489.604C1566.19 488.988 1565.29 488.167 1564.71 487.14C1564.12 486.113 1563.83 484.999 1563.83 483.796C1563.83 481.567 1564.68 479.851 1566.38 478.648C1568.08 477.445 1570.4 476.844 1573.33 476.844H1579.23V476.58C1579.23 474.673 1578.73 473.236 1577.73 472.268C1576.73 471.271 1575.4 470.772 1573.73 470.772C1572.29 470.772 1571.04 471.139 1569.99 471.872C1568.96 472.576 1568.31 473.617 1568.05 474.996H1564.27C1564.41 473.412 1564.94 472.077 1565.85 470.992C1566.79 469.907 1567.95 469.085 1569.33 468.528C1570.7 467.941 1572.17 467.648 1573.73 467.648C1576.78 467.648 1579.06 468.469 1580.59 470.112C1582.14 471.725 1582.92 473.881 1582.92 476.58V490H1579.62L1579.4 486.084C1578.79 487.316 1577.88 488.372 1576.67 489.252C1575.5 490.103 1573.92 490.528 1571.92 490.528ZM1572.49 487.404C1573.9 487.404 1575.1 487.037 1576.1 486.304C1577.13 485.571 1577.91 484.617 1578.43 483.444C1578.96 482.271 1579.23 481.039 1579.23 479.748V479.704H1573.64C1571.47 479.704 1569.93 480.085 1569.02 480.848C1568.14 481.581 1567.7 482.505 1567.7 483.62C1567.7 484.764 1568.11 485.688 1568.93 486.392C1569.78 487.067 1570.97 487.404 1572.49 487.404ZM1602.11 490.528C1599.94 490.528 1598.03 490.029 1596.39 489.032C1594.77 488.035 1593.51 486.671 1592.6 484.94C1591.72 483.209 1591.28 481.244 1591.28 479.044C1591.28 476.844 1591.74 474.893 1592.65 473.192C1593.56 471.461 1594.82 470.112 1596.43 469.144C1598.04 468.147 1599.95 467.648 1602.15 467.648C1603.94 467.648 1605.52 468.015 1606.9 468.748C1608.28 469.481 1609.35 470.508 1610.11 471.828V458.32H1613.81V490H1610.47L1610.11 486.392C1609.41 487.448 1608.4 488.401 1607.08 489.252C1605.76 490.103 1604.1 490.528 1602.11 490.528ZM1602.5 487.316C1603.97 487.316 1605.26 486.979 1606.37 486.304C1607.52 485.6 1608.4 484.632 1609.01 483.4C1609.66 482.168 1609.98 480.731 1609.98 479.088C1609.98 477.445 1609.66 476.008 1609.01 474.776C1608.4 473.544 1607.52 472.591 1606.37 471.916C1605.26 471.212 1603.97 470.86 1602.5 470.86C1601.06 470.86 1599.77 471.212 1598.63 471.916C1597.52 472.591 1596.64 473.544 1595.99 474.776C1595.37 476.008 1595.07 477.445 1595.07 479.088C1595.07 480.731 1595.37 482.168 1595.99 483.4C1596.64 484.632 1597.52 485.6 1598.63 486.304C1599.77 486.979 1601.06 487.316 1602.5 487.316ZM1648.99 490.528C1646.73 490.528 1644.77 490.117 1643.1 489.296C1641.42 488.475 1640.13 487.331 1639.22 485.864C1638.31 484.397 1637.86 482.696 1637.86 480.76H1641.73C1641.73 481.963 1642.01 483.077 1642.57 484.104C1643.12 485.101 1643.93 485.908 1644.99 486.524C1646.07 487.111 1647.41 487.404 1648.99 487.404C1651.07 487.404 1652.69 486.905 1653.83 485.908C1654.98 484.911 1655.55 483.664 1655.55 482.168C1655.55 480.936 1655.28 479.953 1654.76 479.22C1654.23 478.457 1653.51 477.841 1652.6 477.372C1651.72 476.903 1650.69 476.492 1649.52 476.14C1648.38 475.788 1647.17 475.392 1645.91 474.952C1643.54 474.131 1641.78 473.119 1640.63 471.916C1639.49 470.684 1638.92 469.085 1638.92 467.12C1638.89 465.477 1639.27 464.025 1640.06 462.764C1640.85 461.473 1641.97 460.476 1643.4 459.772C1644.87 459.039 1646.6 458.672 1648.6 458.672C1650.56 458.672 1652.26 459.039 1653.7 459.772C1655.17 460.505 1656.3 461.517 1657.09 462.808C1657.91 464.099 1658.33 465.565 1658.36 467.208H1654.49C1654.49 466.357 1654.27 465.521 1653.83 464.7C1653.39 463.849 1652.72 463.16 1651.81 462.632C1650.93 462.104 1649.81 461.84 1648.46 461.84C1646.79 461.811 1645.41 462.236 1644.33 463.116C1643.27 463.996 1642.74 465.213 1642.74 466.768C1642.74 468.088 1643.11 469.1 1643.84 469.804C1644.61 470.508 1645.66 471.095 1647.01 471.564C1648.36 472.004 1649.92 472.517 1651.68 473.104C1653.14 473.632 1654.46 474.248 1655.64 474.952C1656.81 475.656 1657.72 476.565 1658.36 477.68C1659.04 478.795 1659.38 480.217 1659.38 481.948C1659.38 483.415 1658.99 484.808 1658.23 486.128C1657.47 487.419 1656.31 488.475 1654.76 489.296C1653.23 490.117 1651.31 490.528 1648.99 490.528ZM1676.76 490C1674.77 490 1673.2 489.516 1672.05 488.548C1670.91 487.58 1670.34 485.835 1670.34 483.312V471.3H1666.55V468.176H1670.34L1670.82 462.94H1674.03V468.176H1680.46V471.3H1674.03V483.312C1674.03 484.691 1674.31 485.629 1674.87 486.128C1675.43 486.597 1676.41 486.832 1677.82 486.832H1680.1V490H1676.76ZM1696.86 490.528C1694.27 490.528 1692.22 489.751 1690.7 488.196C1689.17 486.612 1688.41 484.192 1688.41 480.936V468.176H1692.1V480.54C1692.1 485.087 1693.97 487.36 1697.69 487.36C1699.6 487.36 1701.17 486.685 1702.4 485.336C1703.66 483.957 1704.29 482.007 1704.29 479.484V468.176H1707.99V490H1704.64L1704.38 486.084C1703.71 487.463 1702.69 488.548 1701.34 489.34C1700.02 490.132 1698.53 490.528 1696.86 490.528ZM1727.71 490.528C1725.54 490.528 1723.63 490.029 1721.99 489.032C1720.38 488.035 1719.12 486.671 1718.21 484.94C1717.33 483.209 1716.89 481.244 1716.89 479.044C1716.89 476.844 1717.34 474.893 1718.25 473.192C1719.16 471.461 1720.42 470.112 1722.04 469.144C1723.65 468.147 1725.56 467.648 1727.76 467.648C1729.55 467.648 1731.13 468.015 1732.51 468.748C1733.89 469.481 1734.96 470.508 1735.72 471.828V458.32H1739.42V490H1736.07L1735.72 486.392C1735.02 487.448 1734 488.401 1732.68 489.252C1731.36 490.103 1729.71 490.528 1727.71 490.528ZM1728.11 487.316C1729.57 487.316 1730.87 486.979 1731.98 486.304C1733.12 485.6 1734 484.632 1734.62 483.4C1735.27 482.168 1735.59 480.731 1735.59 479.088C1735.59 477.445 1735.27 476.008 1734.62 474.776C1734 473.544 1733.12 472.591 1731.98 471.916C1730.87 471.212 1729.57 470.86 1728.11 470.86C1726.67 470.86 1725.38 471.212 1724.24 471.916C1723.12 472.591 1722.24 473.544 1721.6 474.776C1720.98 476.008 1720.67 477.445 1720.67 479.088C1720.67 480.731 1720.98 482.168 1721.6 483.4C1722.24 484.632 1723.12 485.6 1724.24 486.304C1725.38 486.979 1726.67 487.316 1728.11 487.316ZM1758.99 490.528C1756.91 490.528 1755.06 490.059 1753.45 489.12C1751.84 488.152 1750.56 486.817 1749.62 485.116C1748.71 483.415 1748.26 481.405 1748.26 479.088C1748.26 476.8 1748.71 474.805 1749.62 473.104C1750.53 471.373 1751.79 470.039 1753.4 469.1C1755.05 468.132 1756.94 467.648 1759.08 467.648C1761.19 467.648 1763.01 468.132 1764.54 469.1C1766.09 470.039 1767.28 471.285 1768.1 472.84C1768.92 474.395 1769.33 476.067 1769.33 477.856C1769.33 478.179 1769.32 478.501 1769.29 478.824C1769.29 479.147 1769.29 479.513 1769.29 479.924H1751.91C1752 481.596 1752.38 482.989 1753.05 484.104C1753.76 485.189 1754.62 486.011 1755.65 486.568C1756.7 487.125 1757.82 487.404 1758.99 487.404C1760.52 487.404 1761.79 487.052 1762.82 486.348C1763.85 485.644 1764.6 484.691 1765.06 483.488H1768.72C1768.13 485.512 1767 487.199 1765.33 488.548C1763.69 489.868 1761.57 490.528 1758.99 490.528ZM1758.99 470.772C1757.23 470.772 1755.66 471.315 1754.28 472.4C1752.94 473.456 1752.16 475.011 1751.95 477.064H1765.68C1765.59 475.099 1764.92 473.559 1763.66 472.444C1762.4 471.329 1760.84 470.772 1758.99 470.772ZM1777.97 490V468.176H1781.32L1781.54 472.092C1782.24 470.713 1783.25 469.628 1784.57 468.836C1785.89 468.044 1787.39 467.648 1789.06 467.648C1791.64 467.648 1793.69 468.44 1795.22 470.024C1796.77 471.579 1797.55 473.984 1797.55 477.24V490H1793.86V477.636C1793.86 473.089 1791.98 470.816 1788.22 470.816C1786.35 470.816 1784.78 471.505 1783.52 472.884C1782.28 474.233 1781.67 476.169 1781.67 478.692V490H1777.97ZM1815.52 490C1813.52 490 1811.95 489.516 1810.81 488.548C1809.66 487.58 1809.09 485.835 1809.09 483.312V471.3H1805.31V468.176H1809.09L1809.58 462.94H1812.79V468.176H1819.21V471.3H1812.79V483.312C1812.79 484.691 1813.07 485.629 1813.62 486.128C1814.18 486.597 1815.16 486.832 1816.57 486.832H1818.86V490H1815.52ZM1836.01 490.528C1833.4 490.528 1831.23 489.868 1829.49 488.548C1827.76 487.228 1826.75 485.439 1826.46 483.18H1830.24C1830.48 484.324 1831.08 485.321 1832.05 486.172C1833.04 486.993 1834.38 487.404 1836.05 487.404C1837.61 487.404 1838.75 487.081 1839.48 486.436C1840.22 485.761 1840.58 484.969 1840.58 484.06C1840.58 482.74 1840.1 481.86 1839.13 481.42C1838.19 480.98 1836.86 480.584 1835.13 480.232C1833.95 479.997 1832.78 479.66 1831.61 479.22C1830.43 478.78 1829.45 478.164 1828.66 477.372C1827.87 476.551 1827.47 475.48 1827.47 474.16C1827.47 472.253 1828.17 470.699 1829.58 469.496C1831.02 468.264 1832.96 467.648 1835.39 467.648C1837.71 467.648 1839.6 468.235 1841.07 469.408C1842.56 470.552 1843.43 472.195 1843.66 474.336H1840.01C1839.86 473.221 1839.38 472.356 1838.56 471.74C1837.77 471.095 1836.7 470.772 1835.35 470.772C1834.03 470.772 1833 471.051 1832.27 471.608C1831.56 472.165 1831.21 472.899 1831.21 473.808C1831.21 474.688 1831.67 475.377 1832.57 475.876C1833.51 476.375 1834.77 476.8 1836.36 477.152C1837.71 477.445 1838.98 477.812 1840.19 478.252C1841.42 478.663 1842.42 479.293 1843.18 480.144C1843.97 480.965 1844.37 482.168 1844.37 483.752C1844.4 485.717 1843.65 487.345 1842.12 488.636C1840.63 489.897 1838.59 490.528 1836.01 490.528Z" fill="#2D2926"/>
</svg>
