<svg width="1920" height="1080" viewBox="0 0 1920 1080" fill="none" xmlns="http://www.w3.org/2000/svg">
<path d="M449.024 419.422C449.024 424.922 447.733 430.12 445.436 434.731L548.854 537.443L763.376 458.331C763.334 457.641 763.313 456.946 763.313 456.246C763.313 437.235 778.749 421.824 797.789 421.824C816.829 421.824 832.265 437.235 832.265 456.246C832.265 475.257 816.829 490.668 797.789 490.668C785.704 490.668 775.071 484.459 768.915 475.062L598.527 537.899H826.187C830.084 523.154 843.532 512.282 859.524 512.282C878.565 512.282 894 527.694 894 546.705C894 565.716 878.565 581.127 859.524 581.127C843.532 581.127 830.084 570.255 826.187 555.51H567.045L605.839 594.039C610.314 591.919 615.318 590.733 620.601 590.733C639.641 590.733 655.076 606.145 655.076 625.155C655.076 644.166 639.641 659.578 620.601 659.578C601.56 659.578 586.125 644.166 586.125 625.155C586.125 617.83 588.417 611.038 592.324 605.457L544.4 557.86L270.227 658.972C270.231 659.173 270.232 659.375 270.232 659.578C270.232 678.589 254.797 694 235.757 694C216.717 694 201.281 678.589 201.281 659.578C201.281 640.567 216.717 625.155 235.757 625.155C248.357 625.155 259.379 631.905 265.393 641.98L499.864 555.51H140.813C136.916 570.255 123.468 581.127 107.476 581.127C88.4353 581.127 73 565.716 73 546.705C73 527.694 88.4353 512.282 107.476 512.282C123.468 512.282 136.916 523.154 140.813 537.899H524.301L433.78 447.995C428.287 451.689 421.67 453.845 414.549 453.845C395.508 453.845 380.073 438.433 380.073 419.422C380.073 400.411 395.508 385 414.549 385C433.589 385 449.024 400.411 449.024 419.422Z" fill="#B6ADA5"/>
<path fill-rule="evenodd" clip-rule="evenodd" d="M950 559.644V687.733H988.798V634.381H1122.53V687.733H1161.63V559.644C1161.63 551.267 1157.61 544.065 1149.58 538.039C1141.54 532.013 1131.84 529 1120.48 529H990.856C979.687 529 970.085 532.013 962.051 538.039C954.017 544.065 950 551.267 950 559.644ZM1122.53 605.28H988.798V566.038C988.798 561.922 989.092 559.644 989.68 559.203C990.464 558.615 993.599 558.322 999.086 558.322H1112.25C1117.54 558.322 1120.58 558.615 1121.36 559.203C1122.14 559.644 1122.53 561.922 1122.53 566.038V605.28Z" fill="#B6ADA5"/>
<path d="M1262.8 558.322V687.733H1296.22V558.322H1384.35V529H1176.99V558.322H1262.8Z" fill="#B6ADA5"/>
<path d="M1443.84 692C1432.94 692 1423.57 688.906 1415.73 682.718C1407.89 676.53 1403.97 669.135 1403.97 660.532V529H1441.83V653.967C1441.83 658.193 1442.12 660.607 1442.69 661.211C1443.46 661.664 1446.52 661.89 1451.87 661.89H1562.3C1567.46 661.89 1570.42 661.664 1571.19 661.211C1571.95 660.607 1572.33 658.193 1572.33 653.967V529H1610.48V660.532C1610.48 669.135 1606.56 676.53 1598.72 682.718C1590.88 688.906 1581.51 692 1570.61 692H1443.84Z" fill="#B6ADA5"/>
<path d="M1651.25 682.718C1659.09 688.906 1668.46 692 1679.36 692H1806.13C1817.03 692 1826.4 688.906 1834.24 682.718C1842.08 676.53 1846 669.135 1846 660.532V627.026C1846 618.424 1842.08 611.028 1834.24 604.84C1826.4 598.501 1817.03 595.332 1806.13 595.332H1687.39C1682.04 595.332 1678.98 595.106 1678.21 594.653C1677.64 594.2 1677.35 591.861 1677.35 587.635V567.033C1677.35 562.807 1677.64 560.468 1678.21 560.015C1678.98 559.412 1682.04 559.11 1687.39 559.11H1797.82C1803.17 559.11 1806.13 559.412 1806.71 560.015C1807.47 560.468 1807.85 562.807 1807.85 567.033V572.919H1846V560.468C1846 551.865 1842.08 544.47 1834.24 538.282C1826.4 532.094 1817.03 529 1806.13 529H1679.36C1668.46 529 1659.09 532.094 1651.25 538.282C1643.41 544.47 1639.49 551.865 1639.49 560.468V593.974C1639.49 602.576 1643.41 609.972 1651.25 616.16C1659.09 622.348 1668.46 625.442 1679.36 625.442H1797.82C1803.17 625.442 1806.13 625.744 1806.71 626.347C1807.47 626.8 1807.85 629.139 1807.85 633.365V653.967C1807.85 658.193 1807.47 660.607 1806.71 661.211C1806.13 661.664 1803.17 661.89 1797.82 661.89H1687.39C1682.04 661.89 1678.98 661.664 1678.21 661.211C1677.64 660.607 1677.35 658.193 1677.35 653.967V648.081H1639.49V660.532C1639.49 669.135 1643.41 676.53 1651.25 682.718Z" fill="#B6ADA5"/>
</svg>
