<svg width="1920" height="1080" viewBox="0 0 1920 1080" fill="none" xmlns="http://www.w3.org/2000/svg">
<path d="M916 240C916 246.87 914.389 253.363 911.524 259.123L1040.51 387.431L1308.08 288.604C1308.03 287.743 1308 286.874 1308 286C1308 262.252 1327.25 243 1351 243C1374.75 243 1394 262.252 1394 286C1394 309.748 1374.75 329 1351 329C1335.93 329 1322.66 321.244 1314.99 309.505L1102.47 388H1386.42C1391.28 369.581 1408.05 356 1428 356C1451.75 356 1471 375.252 1471 399C1471 422.748 1451.75 442 1428 442C1408.05 442 1391.28 428.419 1386.42 410H1063.2L1111.59 458.13C1117.17 455.482 1123.41 454 1130 454C1153.75 454 1173 473.252 1173 497C1173 520.748 1153.75 540 1130 540C1106.25 540 1087 520.748 1087 497C1087 487.849 1089.86 479.365 1094.73 472.393L1034.96 412.936L692.993 539.243C692.998 539.495 693 539.747 693 540C693 563.748 673.748 583 650 583C626.252 583 607 563.748 607 540C607 516.252 626.252 497 650 497C665.716 497 679.463 505.431 686.964 518.017L979.41 410H531.58C526.72 428.419 509.946 442 490 442C466.252 442 447 422.748 447 399C447 375.252 466.252 356 490 356C509.946 356 526.72 369.581 531.58 388H1009.89L896.987 275.693C890.135 280.307 881.882 283 873 283C849.252 283 830 263.748 830 240C830 216.252 849.252 197 873 197C896.748 197 916 216.252 916 240Z" fill="#B6ADA5"/>
<path fill-rule="evenodd" clip-rule="evenodd" d="M432 735.908V886H477.467V823.483H634.189V886H680V735.908C680 726.092 675.293 717.653 665.878 710.592C656.463 703.531 645.096 700 631.778 700H479.878C466.789 700 455.537 703.531 446.122 710.592C436.707 717.653 432 726.092 432 735.908ZM634.189 789.383H477.467V743.4C477.467 738.578 477.811 735.908 478.5 735.392C479.419 734.703 483.093 734.358 489.522 734.358H622.133C628.333 734.358 631.893 734.703 632.811 735.392C633.73 735.908 634.189 738.578 634.189 743.4V789.383Z" fill="#B6ADA5"/>
<path d="M798.567 734.358V886H837.728V734.358H941V700H698V734.358H798.567Z" fill="#B6ADA5"/>
<path d="M1010.72 891C997.947 891 986.968 887.375 977.781 880.124C968.594 872.873 964 864.207 964 854.126V700H1008.37V846.433C1008.37 851.385 1008.7 854.215 1009.38 854.922C1010.27 855.453 1013.86 855.718 1020.13 855.718H1149.53C1155.58 855.718 1159.06 855.453 1159.95 854.922C1160.85 854.215 1161.3 851.385 1161.3 846.433V700H1206V854.126C1206 864.207 1201.41 872.873 1192.22 880.124C1183.03 887.375 1172.05 891 1159.28 891H1010.72Z" fill="#B6ADA5"/>
<path d="M1253.78 880.124C1262.97 887.375 1273.95 891 1286.72 891H1435.28C1448.05 891 1459.03 887.375 1468.22 880.124C1477.41 872.873 1482 864.207 1482 854.126V814.865C1482 804.785 1477.41 796.119 1468.22 788.868C1459.03 781.44 1448.05 777.726 1435.28 777.726H1296.13C1289.86 777.726 1286.27 777.461 1285.38 776.931C1284.7 776.4 1284.37 773.659 1284.37 768.707V744.567C1284.37 739.615 1284.7 736.874 1285.38 736.343C1286.27 735.636 1289.86 735.282 1296.13 735.282H1425.53C1431.81 735.282 1435.28 735.636 1435.95 736.343C1436.85 736.874 1437.3 739.615 1437.3 744.567V751.464H1482V736.874C1482 726.793 1477.41 718.127 1468.22 710.876C1459.03 703.625 1448.05 700 1435.28 700H1286.72C1273.95 700 1262.97 703.625 1253.78 710.876C1244.59 718.127 1240 726.793 1240 736.874V776.135C1240 786.215 1244.59 794.881 1253.78 802.132C1262.97 809.383 1273.95 813.008 1286.72 813.008H1425.53C1431.81 813.008 1435.28 813.362 1435.95 814.069C1436.85 814.6 1437.3 817.341 1437.3 822.293V846.433C1437.3 851.385 1436.85 854.215 1435.95 854.922C1435.28 855.453 1431.81 855.718 1425.53 855.718H1296.13C1289.86 855.718 1286.27 855.453 1285.38 854.922C1284.7 854.215 1284.37 851.385 1284.37 846.433V839.536H1240V854.126C1240 864.207 1244.59 872.873 1253.78 880.124Z" fill="#B6ADA5"/>
</svg>
