<svg width="700" height="700" viewBox="0 0 700 700" fill="none" xmlns="http://www.w3.org/2000/svg">
<g clip-path="url(#clip0)">
<rect x="162" y="162" width="376" height="376" rx="70" fill="#2D2926"/>
<path fill-rule="evenodd" clip-rule="evenodd" d="M211 333.588V373.665H223.081V356.972H264.724V373.665H276.897V333.588C276.897 330.967 275.646 328.714 273.145 326.828C270.643 324.943 267.623 324 264.084 324H223.722C220.244 324 217.254 324.943 214.752 326.828C212.251 328.714 211 330.967 211 333.588ZM264.724 347.867H223.081V335.588C223.081 334.301 223.173 333.588 223.356 333.45C223.6 333.266 224.576 333.174 226.284 333.174H261.521C263.169 333.174 264.114 333.266 264.358 333.45C264.602 333.588 264.724 334.301 264.724 335.588V347.867Z" fill="#B6ADA5"/>
<path d="M308.402 333.174V373.665H318.808V333.174H346.249V324H281.68V333.174H308.402Z" fill="#B6ADA5"/>
<path d="M364.774 375C361.38 375 358.463 374.032 356.022 372.096C353.581 370.16 352.36 367.846 352.36 365.154V324H364.149V363.1C364.149 364.422 364.238 365.178 364.417 365.367C364.655 365.508 365.608 365.579 367.275 365.579H401.659C403.266 365.579 404.189 365.508 404.427 365.367C404.666 365.178 404.785 364.422 404.785 363.1V324H416.663V365.154C416.663 367.846 415.442 370.16 413.001 372.096C410.56 374.032 407.643 375 404.249 375H364.774Z" fill="#B6ADA5"/>
<path d="M429.359 372.096C431.8 374.032 434.717 375 438.111 375H477.586C480.98 375 483.897 374.032 486.338 372.096C488.779 370.16 490 367.846 490 365.154V354.671C490 351.979 488.779 349.665 486.338 347.729C483.897 345.746 480.98 344.754 477.586 344.754H440.612C438.945 344.754 437.992 344.683 437.754 344.542C437.575 344.4 437.486 343.668 437.486 342.346V335.9C437.486 334.578 437.575 333.846 437.754 333.704C437.992 333.515 438.945 333.421 440.612 333.421H474.996C476.663 333.421 477.586 333.515 477.765 333.704C478.003 333.846 478.122 334.578 478.122 335.9V337.742H490V333.846C490 331.154 488.779 328.84 486.338 326.904C483.897 324.968 480.98 324 477.586 324H438.111C434.717 324 431.8 324.968 429.359 326.904C426.918 328.84 425.697 331.154 425.697 333.846V344.329C425.697 347.021 426.918 349.335 429.359 351.271C431.8 353.207 434.717 354.175 438.111 354.175H474.996C476.663 354.175 477.586 354.269 477.765 354.458C478.003 354.6 478.122 355.332 478.122 356.654V363.1C478.122 364.422 478.003 365.178 477.765 365.367C477.586 365.508 476.663 365.579 474.996 365.579H440.612C438.945 365.579 437.992 365.508 437.754 365.367C437.575 365.178 437.486 364.422 437.486 363.1V361.258H425.697V365.154C425.697 367.846 426.918 370.16 429.359 372.096Z" fill="#B6ADA5"/>
</g>
<defs>
<clipPath id="clip0">
<rect width="700" height="700" fill="white"/>
</clipPath>
</defs>
</svg>
