<svg width="700" height="700" viewBox="0 0 700 700" fill="none" xmlns="http://www.w3.org/2000/svg">
<g clip-path="url(#clip0)">
<rect x="162" y="162" width="376" height="376" rx="70" fill="#2D2926"/>
<path d="M338.578 269.363C338.578 271.178 338.15 272.894 337.389 274.416L371.652 308.321L442.724 282.206C442.71 281.979 442.703 281.749 442.703 281.518C442.703 275.243 447.817 270.155 454.125 270.155C460.433 270.155 465.547 275.243 465.547 281.518C465.547 287.794 460.433 292.881 454.125 292.881C450.121 292.881 446.598 290.831 444.559 287.729L388.109 308.472H463.533C464.824 303.604 469.28 300.016 474.578 300.016C480.886 300.016 486 305.103 486 311.378C486 317.654 480.886 322.741 474.578 322.741C469.28 322.741 464.824 319.152 463.533 314.285H377.679L390.531 327.003C392.014 326.303 393.672 325.912 395.422 325.912C401.73 325.912 406.844 330.999 406.844 337.275C406.844 343.55 401.73 348.637 395.422 348.637C389.114 348.637 384 343.55 384 337.275C384 334.856 384.759 332.615 386.054 330.772L370.176 315.061L279.342 348.437C279.343 348.504 279.344 348.57 279.344 348.637C279.344 354.913 274.23 360 267.922 360C261.614 360 256.5 354.913 256.5 348.637C256.5 342.362 261.614 337.275 267.922 337.275C272.096 337.275 275.748 339.503 277.74 342.828L355.421 314.285H236.467C235.176 319.152 230.72 322.741 225.422 322.741C219.114 322.741 214 317.654 214 311.378C214 305.103 219.114 300.016 225.422 300.016C230.72 300.016 235.176 303.604 236.467 308.472H363.518L333.528 278.795C331.708 280.014 329.515 280.725 327.156 280.725C320.848 280.725 315.734 275.638 315.734 269.363C315.734 263.087 320.848 258 327.156 258C333.464 258 338.578 263.087 338.578 269.363Z" fill="#B6ADA5"/>
<path fill-rule="evenodd" clip-rule="evenodd" d="M210 400.588V440.665H222.081V423.972H263.724V440.665H275.897V400.588C275.897 397.967 274.646 395.714 272.145 393.828C269.643 391.943 266.623 391 263.084 391H222.722C219.244 391 216.254 391.943 213.752 393.828C211.251 395.714 210 397.967 210 400.588ZM263.724 414.867H222.081V402.588C222.081 401.301 222.173 400.588 222.356 400.45C222.6 400.266 223.576 400.174 225.284 400.174H260.521C262.169 400.174 263.114 400.266 263.358 400.45C263.602 400.588 263.724 401.301 263.724 402.588V414.867Z" fill="#B6ADA5"/>
<path d="M307.402 400.174V440.665H317.808V400.174H345.249V391H280.68V400.174H307.402Z" fill="#B6ADA5"/>
<path d="M363.774 442C360.38 442 357.463 441.032 355.022 439.096C352.581 437.16 351.36 434.846 351.36 432.154V391H363.149V430.1C363.149 431.422 363.238 432.178 363.417 432.367C363.655 432.508 364.608 432.579 366.275 432.579H400.659C402.266 432.579 403.189 432.508 403.427 432.367C403.666 432.178 403.785 431.422 403.785 430.1V391H415.663V432.154C415.663 434.846 414.442 437.16 412.001 439.096C409.56 441.032 406.643 442 403.249 442H363.774Z" fill="#B6ADA5"/>
<path d="M428.359 439.096C430.8 441.032 433.717 442 437.111 442H476.586C479.98 442 482.897 441.032 485.338 439.096C487.779 437.16 489 434.846 489 432.154V421.671C489 418.979 487.779 416.665 485.338 414.729C482.897 412.746 479.98 411.754 476.586 411.754H439.612C437.945 411.754 436.992 411.683 436.754 411.542C436.575 411.4 436.486 410.668 436.486 409.346V402.9C436.486 401.578 436.575 400.846 436.754 400.704C436.992 400.515 437.945 400.421 439.612 400.421H473.996C475.663 400.421 476.586 400.515 476.765 400.704C477.003 400.846 477.122 401.578 477.122 402.9V404.742H489V400.846C489 398.154 487.779 395.84 485.338 393.904C482.897 391.968 479.98 391 476.586 391H437.111C433.717 391 430.8 391.968 428.359 393.904C425.918 395.84 424.697 398.154 424.697 400.846V411.329C424.697 414.021 425.918 416.335 428.359 418.271C430.8 420.207 433.717 421.175 437.111 421.175H473.996C475.663 421.175 476.586 421.269 476.765 421.458C477.003 421.6 477.122 422.332 477.122 423.654V430.1C477.122 431.422 477.003 432.178 476.765 432.367C476.586 432.508 475.663 432.579 473.996 432.579H439.612C437.945 432.579 436.992 432.508 436.754 432.367C436.575 432.178 436.486 431.422 436.486 430.1V428.258H424.697V432.154C424.697 434.846 425.918 437.16 428.359 439.096Z" fill="#B6ADA5"/>
</g>
<defs>
<clipPath id="clip0">
<rect width="700" height="700" fill="white"/>
</clipPath>
</defs>
</svg>
